<svg width="183" height="49" fill="none" xmlns="http://www.w3.org/2000/svg" filter="blur(10px)"><path d="M34.218 24.221l14.21 14.21h-5.029a3.296 3.296 0 01-2.295-.957L27.906 24.221l13.253-13.28a3.112 3.112 0 012.295-.93h4.973l-14.209 14.21zM8.177 10.941a3.112 3.112 0 00-2.296-.93h-5l14.21 14.21L.88 38.431h5.028c.847 0 1.694-.356 2.295-.957l13.226-13.28L8.177 10.94zm16.477 16.532l-13.28 13.253a3.221 3.221 0 00-.93 2.295v5l14.21-14.209 14.21 14.21v-5.028a3.27 3.27 0 00-.93-2.295l-13.28-13.226zm0-6.503l13.28-13.253c.601-.602.93-1.421.93-2.296v-5L24.653 14.63 10.444.42v5.001c0 .847.329 1.694.93 2.296l13.28 13.252z" fill="url(#paint0_linear_307_127)"/><path fill-rule="evenodd" clip-rule="evenodd" d="M154.7 7.32v29.211c-.027.465.164.93.492 1.285a1.72 1.72 0 001.257.546h.519c.492 0 .957-.191 1.285-.546.327-.356.519-.82.519-1.285V7.321h3.388v29.975a4.152 4.152 0 01-4.071 4.154h-2.596c-1.121 0-2.186-.41-2.979-1.202a4.135 4.135 0 01-1.229-2.952V7.32h3.415zm24.101-.328c2.268.055 4.099 2.186 4.099 4.482v2.705c0 .383-.246.71-.628.82l-2.815.792v-3.88a1.82 1.82 0 00-1.803-1.803c-.984 0-1.804.792-1.804 1.803v3.224c0 1.995 1.476 4.537 1.476 4.537l4.044 7.787c1.64 3.088 1.503 5.356 1.503 5.356v4.318a4.37 4.37 0 01-1.23 3.033c-.792.82-1.885 1.257-3.033 1.284h-2.131c-2.296-.137-4.099-2.022-4.099-4.318v-4.836c0-.383.246-.71.628-.82l2.815-.792v5.902c0 .984.82 1.776 1.831 1.776.983 0 1.803-.82 1.776-1.83v-3.854c0-1.967-1.476-4.59-1.476-4.59l-3.989-7.788c-1.64-3.088-1.503-5.356-1.503-5.356v-3.47c0-2.35 1.885-4.482 4.263-4.482h2.076zm-63.969 0c2.296.11 4.099 2.022 4.099 4.318v25.932c-.027 2.268-1.831 4.126-4.099 4.235h-2.596a4.293 4.293 0 01-4.235-4.235v-25.96a4.37 4.37 0 011.23-3.033c.792-.82 1.885-1.257 3.033-1.284l2.568.027zm-38.939.328l-.82 2.842a.845.845 0 01-.82.629h-5.437v10.875h5.63l-.82 2.842c-.11.355-.438.629-.82.629h-3.99v12.542h7.077l-.792 2.814a.845.845 0 01-.82.629h-8.853V7.32h10.465zm60.417 0a4.233 4.233 0 014.208 4.236v25.303c0 2.323-1.885 4.236-4.208 4.236h-6.558V7.32h6.558zM91.66 18.196L94.775 7.32h3.47L93.41 24.235l4.864 16.914h-3.47L91.66 30.246l-3.115 10.876h-3.47l4.836-16.887L85.047 7.32h3.47l3.143 10.876zm22.025 20.22a1.76 1.76 0 001.284-.573 1.79 1.79 0 00.492-1.312v-24.62a1.79 1.79 0 00-.492-1.312c-.328-.355-.793-.546-1.284-.574h-.52a1.891 1.891 0 00-1.803 1.886v24.62c0 1.011.792 1.831 1.803 1.886h.52zm21.669-.71c.956 0 1.803-.492 1.803-1.803V12.54c0-1.257-.847-1.75-1.803-1.75h-2.214v26.916h2.214z" fill="#222"/><defs><linearGradient id="paint0_linear_307_127" x1=".865" y1="24.216" x2="30.928" y2="24.216" gradientUnits="userSpaceOnUse"><stop stop-color="#00BFFF"/><stop offset="1" stop-color="#6619FF"/></linearGradient></defs></svg>