<svg width="224" height="40" fill="none" xmlns="http://www.w3.org/2000/svg" filter="blur(10px)"><path d="M45.158 11.192c-8.175 0-14.501 6.132-14.501 14.404C30.657 33.87 36.886 40 45.158 40c8.273 0 14.599-6.229 14.599-14.404s-6.229-14.404-14.599-14.404zm.097 22.774c-4.671 0-7.98-3.601-7.98-8.467 0-4.866 3.309-8.467 7.98-8.467 4.672 0 8.078 3.6 8.078 8.467 0 4.866-3.503 8.467-8.078 8.467zM61.508 17.42h3.99v21.995h6.521V11.68H61.51v5.742zm-47.104-.292c3.406 0 6.131 2.044 7.105 5.158h6.812c-1.265-6.618-6.715-11.192-13.917-11.192C6.326 11.192 0 17.324 0 25.596 0 33.87 6.229 40 14.501 40c7.008 0 12.555-4.477 13.82-11.192h-6.813c-.973 3.114-3.698 5.255-7.007 5.255-4.671 0-7.98-3.6-7.98-8.467 0-4.866 3.211-8.467 7.883-8.467zm169.83 5.742l-4.769-.681c-2.239-.292-3.893-1.07-3.893-2.823 0-1.946 2.141-2.92 4.963-2.92 3.115 0 5.158 1.363 5.548 3.504h6.228c-.681-5.547-4.963-8.856-11.581-8.856-6.813 0-11.387 3.503-11.387 8.467 0 4.672 2.92 7.494 8.954 8.273l4.769.68c2.336.293 3.601 1.266 3.601 2.92 0 2.239-2.239 3.115-5.353 3.115-3.796 0-5.937-1.557-6.326-3.893h-6.326c.584 5.45 4.866 9.246 12.555 9.246 7.007 0 11.776-3.212 11.776-8.76 0-4.866-3.407-7.396-8.759-8.272zM68.808.292c-2.336 0-4.185 1.752-4.185 4.088 0 2.335 1.752 4.087 4.185 4.087 2.336 0 4.185-1.752 4.185-4.087 0-2.336-1.85-4.088-4.185-4.088zM163.6 21.216c0-6.034-3.698-10.024-11.387-10.024-7.299 0-11.387 3.698-12.263 9.343h6.424c.292-2.238 2.044-3.99 5.742-3.99 3.309 0 4.866 1.46 4.866 3.212 0 2.335-2.92 2.92-6.618 3.309-4.964.584-11.095 2.238-11.095 8.662 0 4.963 3.698 8.175 9.635 8.175 4.672 0 7.494-1.947 8.954-4.964.195 2.725 2.238 4.477 5.158 4.477h3.796v-5.742H163.6V21.217zm-6.423 6.91c0 3.699-3.212 6.424-7.202 6.424-2.433 0-4.477-.973-4.477-3.212 0-2.725 3.309-3.503 6.326-3.795 2.92-.292 4.477-.876 5.353-2.142v2.726zM122.92 11.192c-3.601 0-6.618 1.46-8.759 3.99V0h-6.424v39.416h6.326v-3.6c2.141 2.627 5.256 4.184 8.857 4.184 7.786 0 13.625-6.131 13.625-14.404 0-8.272-5.937-14.404-13.625-14.404zm-.973 22.774c-4.672 0-7.981-3.601-7.981-8.467 0-4.866 3.406-8.467 8.078-8.467 4.671 0 7.98 3.6 7.98 8.467 0 4.963-3.406 8.467-8.077 8.467zM92.263 11.192c-4.185 0-6.91 1.752-8.565 4.088v-3.601h-6.423v27.737h6.423V24.331c0-4.282 2.725-7.202 6.716-7.202 3.698 0 6.034 2.628 6.034 6.423v15.864h6.423v-16.35c0-7.008-3.6-11.874-10.608-11.874zM223.747 24.72c0-7.98-5.839-13.528-13.625-13.528-8.273 0-14.404 6.229-14.404 14.404 0 8.662 6.52 14.404 14.501 14.404 6.715 0 11.971-3.99 13.333-9.635h-6.715c-.973 2.433-3.309 3.893-6.521 3.893-4.185 0-7.299-2.53-7.98-7.105h21.411V24.72zm-21.022-2.14c1.071-3.894 3.893-5.743 7.299-5.743 3.699 0 6.424 2.044 7.105 5.742h-14.404z" fill="#0052FF"/></svg>