<svg width="163" height="41" fill="none" xmlns="http://www.w3.org/2000/svg" filter="blur(10px)"><path d="M17.073 25.678c1.6.026 5.079.082 5.104-2.15.024-2.31-3.435-2.238-5.06-2.205-.167.003-.315.006-.438.006v4.345c.112 0 .245.002.395.004zm-.13-6.326c1.29.044 4.323.146 4.348-1.938.025-2.113-2.857-2.048-4.216-2.017-.141.003-.266.006-.369.006v3.942l.237.008z" fill="#009FE8"/><path fill-rule="evenodd" clip-rule="evenodd" d="M35.209 13.74c0 21.4-17.135 27.219-17.135 27.219S.938 35.139.938 13.74V6.045c0-.832.644-1.529 1.475-1.582 3.111-.135 10.485-.778 15.66-3.54 5.176 2.762 12.55 3.405 15.661 3.54.831.053 1.475.75 1.475 1.582v7.696zm-14.963-.562c2.547.24 4.532 1.045 4.746 3.378.161 1.717-.563 2.735-1.716 3.272 1.877.456 3.03 1.609 2.789 4.103-.322 3.11-2.628 3.941-5.953 4.102v3.272h-1.985v-3.218c-.51 0-1.046 0-1.582-.027v3.245h-1.957v-3.272c-.456-.026-3.594 0-3.594 0l.027-2.386h2.226V15.216h-2.52V13.15s3.539-.027 3.968-.027l-.027-3.245h1.984v3.191h1.61V9.906h1.984v3.272z" fill="#009FE8"/><path d="M69.504 27.94c0 1.716-.349 3.137-1.019 4.29a8.098 8.098 0 01-2.682 2.789c-1.126.697-2.386 1.207-3.807 1.529a21.596 21.596 0 01-4.371.455H45.209V5.817h12.416c1.206 0 2.44.134 3.7.375 1.26.242 2.414.67 3.433 1.287a7.82 7.82 0 012.52 2.44c.644 1.02.966 2.333.966 3.916 0 1.743-.456 3.164-1.422 4.29-.938 1.126-2.172 1.958-3.7 2.44v.08a8.81 8.81 0 012.494.832 7.132 7.132 0 012.01 1.529 7.476 7.476 0 011.368 2.172c.322.804.51 1.716.51 2.762zM60.95 14.854c0-1.046-.403-1.824-1.207-2.306-.804-.483-2.011-.725-3.593-.725h-3.7v6.436h4.048c1.422 0 2.494-.295 3.272-.858.804-.59 1.18-1.448 1.18-2.547zm1.019 12.362c0-1.288-.483-2.2-1.448-2.682-.966-.51-2.253-.75-3.889-.75H52.45v7.132h4.237c.59 0 1.207-.053 1.824-.16a6.765 6.765 0 001.716-.537c.51-.268.938-.644 1.26-1.126.322-.483.483-1.1.483-1.877zM79.506 8.07c0 .562-.107 1.072-.322 1.555-.214.482-.51.911-.885 1.26a4.389 4.389 0 01-1.314.831c-.509.215-1.045.295-1.608.295-1.18 0-2.146-.375-2.95-1.18-.805-.777-1.18-1.716-1.18-2.789 0-.536.107-1.045.322-1.528.214-.483.51-.912.885-1.26a4.836 4.836 0 011.314-.858 4.14 4.14 0 011.635-.322c.563 0 1.1.107 1.61.295.509.214.965.482 1.313.831.376.349.67.778.885 1.26.188.51.295 1.046.295 1.61zm-7.75 6.998h7.24v21.935h-7.24V15.068zm20.327 5.363v8.394c0 1.045.187 1.796.59 2.332.402.51 1.1.778 2.145.778.349 0 .724-.027 1.126-.08.402-.054.724-.134.992-.268l.08 5.282c-.509.188-1.126.322-1.903.456-.778.134-1.529.188-2.306.188-1.475 0-2.709-.188-3.7-.563-.993-.376-1.797-.885-2.414-1.582a6.424 6.424 0 01-1.314-2.468c-.268-.965-.402-2.01-.402-3.19v-9.28h-3.46v-5.363h3.486V9.303h7.106v5.765h5.15v5.363h-5.176zm31.32 16.626c-2.038.51-4.263.75-6.677.75-2.494 0-4.8-.401-6.891-1.18-2.092-.803-3.915-1.903-5.417-3.351a15.21 15.21 0 01-3.54-5.176c-.858-2.01-1.287-4.263-1.287-6.73 0-2.494.429-4.747 1.314-6.785.858-2.038 2.065-3.754 3.593-5.175a15.875 15.875 0 015.363-3.271 19.25 19.25 0 016.651-1.154c2.467 0 4.746.376 6.865 1.127 2.118.75 3.834 1.743 5.148 3.03l-4.746 5.417c-.724-.858-1.716-1.556-2.896-2.092-1.207-.536-2.575-.804-4.103-.804-1.314 0-2.548.24-3.647.724a8.215 8.215 0 00-2.896 2.038 8.66 8.66 0 00-1.904 3.083c-.456 1.18-.697 2.494-.697 3.889 0 1.448.214 2.762.617 3.968.402 1.207 1.019 2.253 1.823 3.111a8.281 8.281 0 003.003 2.038c1.18.483 2.548.724 4.076.724.885 0 1.717-.054 2.521-.188a9.503 9.503 0 002.199-.643v-5.685h-5.953V18.58h12.871v16.518c-1.582.805-3.352 1.449-5.39 1.958zm32.501-11.102c0 1.797-.322 3.406-.965 4.88a10.886 10.886 0 01-2.655 3.701c-1.126 1.02-2.413 1.797-3.888 2.36s-3.03.831-4.72.831c-1.636 0-3.218-.268-4.693-.83-1.474-.564-2.788-1.342-3.888-2.36a11.2 11.2 0 01-2.628-3.701c-.643-1.448-.965-3.084-.965-4.88 0-1.797.322-3.406.965-4.854a10.713 10.713 0 012.628-3.647 11.06 11.06 0 013.888-2.28 13.7 13.7 0 014.693-.804c1.663 0 3.245.268 4.72.804 1.475.537 2.762 1.288 3.888 2.28 1.126.992 1.984 2.226 2.655 3.647.643 1.448.965 3.057.965 4.853zm-6.945 0c0-.697-.107-1.394-.349-2.064a5.664 5.664 0 00-1.019-1.797 5.137 5.137 0 00-1.635-1.26c-.644-.322-1.395-.483-2.253-.483-.858 0-1.609.16-2.252.483-.644.321-1.18.75-1.609 1.26a5.05 5.05 0 00-.966 1.796 6.793 6.793 0 000 4.13c.215.67.537 1.287.992 1.824.429.536.993.992 1.636 1.314.644.321 1.395.482 2.253.482.858 0 1.609-.16 2.252-.482a4.856 4.856 0 001.636-1.314 5.726 5.726 0 00.992-1.824c.215-.67.322-1.367.322-2.065zm10.619 6.758c1.368 0 2.521 1.072 2.521 2.494 0 1.448-1.18 2.52-2.521 2.52-1.368 0-2.548-1.072-2.548-2.52s1.154-2.494 2.548-2.494zm0 .402c-1.153 0-2.065.912-2.065 2.092 0 1.233.912 2.091 2.065 2.091s2.038-.885 2.038-2.091c0-1.207-.912-2.092-2.038-2.092zm-.536 3.54h-.456v-2.896h1.099c.697 0 1.019.268 1.019.831 0 .51-.322.75-.751.804l.832 1.26h-.483l-.778-1.26h-.509v1.26h.027zm0-1.61h.536c.536 0 .724-.16.724-.482 0-.268-.134-.429-.644-.429h-.59v.912h-.026z" fill="#222"/></svg>