<svg width="246" height="62" fill="none" xmlns="http://www.w3.org/2000/svg" filter="blur(10px)"><path d="M20.163 21.27c2.86-.217 7.091-.995 11.205-3.717 4.12 2.726 8.36 3.503 11.226 3.717-.133 5.237-.393 8.987-.808 11.748-.492 3.267-1.161 4.855-1.847 5.809-.671.931-1.563 1.562-3.327 2.537-.279.154-.576.315-.89.486h-.003c-1.213.658-2.684 1.454-4.35 2.533-1.665-1.077-3.134-1.873-4.345-2.53a119.82 119.82 0 01-.896-.488c-1.761-.975-2.65-1.605-3.318-2.536-.685-.953-1.353-2.541-1.842-5.81-.414-2.761-.673-6.512-.805-11.75z" fill="#009FE8"/><path fill-rule="evenodd" clip-rule="evenodd" d="M20.718 0h20.27c11.441 0 20.717 9.276 20.717 20.718v20.27c0 11.441-9.276 20.717-20.718 20.717H20.718C9.276 61.705 0 52.43 0 40.987V20.718C0 9.276 9.276 0 20.718 0zm12.593 11.452a3.032 3.032 0 00-3.886 0c-4.63 3.867-9.912 3.84-12.065 3.83h-.288a3.031 3.031 0 00-3.032 3.076c.104 6.895.38 11.876.932 15.56.551 3.68 1.418 6.365 2.912 8.447 1.512 2.105 3.448 3.275 5.31 4.305.33.183.665.365 1.004.549 1.611.875 3.336 1.812 5.403 3.294a3.031 3.031 0 003.534 0c2.069-1.483 3.796-2.42 5.41-3.297.337-.183.67-.363 1-.546 1.863-1.029 3.801-2.198 5.315-4.302 1.498-2.082 2.368-4.767 2.921-8.448.555-3.686.83-8.667.935-15.562a3.031 3.031 0 00-3.031-3.077l-.292.001c-2.17.01-7.452.036-12.082-3.83z" fill="#009FE8"/><path d="M82.404 24.842h-6.699v-3.948h18.241v3.948h-6.698v16.986h-4.844V24.842zm16.132 3.02c.558-.778 1.305-1.366 2.242-1.765.957-.398 2.053-.598 3.289-.598v4.307a16.64 16.64 0 00-1.046-.06c-1.336 0-2.382.379-3.14 1.136-.758.738-1.137 1.854-1.137 3.35v7.596H94.08v-16.09h4.457v2.124zm22.837-2.123v16.089h-4.427v-1.915a6.347 6.347 0 01-2.213 1.615 7.128 7.128 0 01-2.781.539c-2.113 0-3.787-.608-5.023-1.824-1.236-1.216-1.854-3.02-1.854-5.413v-9.091h4.664v8.403c0 2.591 1.087 3.888 3.26 3.888 1.116 0 2.014-.36 2.692-1.077.677-.738 1.016-1.824 1.016-3.26V25.74h4.666zm7.94 16.328c-1.336 0-2.642-.16-3.917-.478-1.277-.34-2.293-.758-3.051-1.257l1.555-3.349c.718.458 1.585.837 2.602 1.136 1.017.28 2.013.419 2.99.419 1.974 0 2.961-.488 2.961-1.466 0-.458-.27-.787-.807-.986-.539-.2-1.366-.37-2.483-.509-1.315-.2-2.402-.429-3.259-.687a5.162 5.162 0 01-2.243-1.376c-.618-.658-.927-1.595-.927-2.811 0-1.017.289-1.914.867-2.692.598-.797 1.455-1.415 2.572-1.854 1.136-.438 2.472-.658 4.007-.658 1.137 0 2.263.13 3.379.39 1.137.239 2.074.577 2.812 1.016l-1.556 3.32c-1.415-.798-2.96-1.197-4.635-1.197-.997 0-1.744.14-2.243.419-.498.279-.747.638-.747 1.077 0 .498.269.846.807 1.046.538.2 1.396.389 2.572.569 1.316.219 2.392.458 3.229.717a4.74 4.74 0 012.183 1.346c.618.657.927 1.575.927 2.75 0 .998-.298 1.885-.896 2.662-.599.778-1.476 1.386-2.632 1.825-1.136.418-2.492.628-4.067.628zm19.057-1.017c-.459.339-1.027.598-1.705.778a8.888 8.888 0 01-2.093.239c-1.914 0-3.399-.489-4.456-1.466-1.037-.977-1.555-2.412-1.555-4.306v-6.609h-2.482v-3.589h2.482V22.18h4.665v3.917h4.007v3.59h-4.007v6.548c0 .678.17 1.206.508 1.585.359.359.858.539 1.496.539.737 0 1.365-.2 1.884-.599l1.256 3.29zm39.467-20.156l-6.848 20.934h-5.203l-4.606-14.175-4.755 14.175h-5.173l-6.878-20.934h5.024l4.725 14.713 4.934-14.713h4.485l4.785 14.833 4.875-14.833h4.635zm5.873 4.605c2.492 0 4.406.598 5.742 1.795 1.336 1.176 2.003 2.96 2.003 5.353v9.18h-4.366v-2.003c-.876 1.495-2.511 2.243-4.904 2.243-1.236 0-2.312-.21-3.23-.629-.897-.418-1.585-.996-2.063-1.734-.479-.738-.718-1.575-.718-2.512 0-1.495.559-2.671 1.675-3.529 1.136-.857 2.881-1.285 5.233-1.285h3.709c0-1.017-.31-1.795-.928-2.333-.618-.558-1.545-.838-2.781-.838a7.99 7.99 0 00-2.542.42c-.817.259-1.515.617-2.093 1.076l-1.675-3.26c.877-.618 1.924-1.096 3.14-1.435a14.287 14.287 0 013.798-.509zm-.359 13.427c.798 0 1.506-.179 2.124-.538.618-.378 1.056-.926 1.316-1.644v-1.645h-3.201c-1.913 0-2.87.628-2.87 1.884 0 .598.229 1.076.687 1.435.479.339 1.127.508 1.944.508zm10.533-19.288h4.664v22.19h-4.664v-22.19zm7.2 0h4.665v22.19h-4.665v-22.19zm22.96 14.205c0 .06-.029.479-.09 1.256h-12.171c.22.997.738 1.784 1.555 2.363.818.577 1.834.866 3.051.866.837 0 1.575-.12 2.213-.358a5.546 5.546 0 001.823-1.196l2.483 2.69c-1.515 1.735-3.728 2.603-6.639 2.603-1.814 0-3.419-.35-4.815-1.047-1.395-.718-2.472-1.705-3.229-2.96-.758-1.257-1.137-2.682-1.137-4.277 0-1.575.369-2.99 1.107-4.247a7.853 7.853 0 013.08-2.96c1.316-.718 2.781-1.077 4.396-1.077 1.575 0 3.001.34 4.276 1.017a7.305 7.305 0 012.991 2.93c.737 1.257 1.106 2.722 1.106 4.397zm-8.343-4.815c-1.057 0-1.944.299-2.661.898-.719.598-1.157 1.415-1.317 2.452h7.925c-.159-1.017-.598-1.825-1.316-2.423-.717-.618-1.595-.927-2.631-.927zm20.031 12.022c-.458.339-1.026.598-1.704.778a8.882 8.882 0 01-2.093.239c-1.914 0-3.399-.489-4.456-1.466-1.037-.977-1.555-2.412-1.555-4.306v-6.609h-2.482v-3.589h2.482V22.18h4.665v3.917h4.008v3.59h-4.008v6.548c0 .678.169 1.206.508 1.585.359.359.857.539 1.496.539.737 0 1.365-.2 1.884-.599l1.255 3.29z" fill="#222"/></svg>