<svg width="808" height="269" fill="none" xmlns="http://www.w3.org/2000/svg" filter="blur(10px)"><path fill-rule="evenodd" clip-rule="evenodd" d="M782.506 8.303c-14.203 43.588-62.651 105.294-125.185 154.934-62.671 49.749-135.783 84.419-197.639 78.939-67.688-5.996-112.087-42.129-135.305-82.869 29.959-7.331 50.088-21.124 61.781-38.65 17.119-25.655 14.284-56.647 1.545-79.122C375.215 19.5 350.116 1.78 323.085 11.99c-23.584 8.909-37.146 30.077-41.969 54.72-4.24 21.665-2.006 46.879 6.388 71.845-4.494.335-9.211.551-14.163.636-50.837.872-124.734-12.148-229.3-49.818l36.923-12.147c6.654-2.19 9.873-9.48 7.19-16.286-2.684-6.805-10.253-10.547-16.908-8.358L.006 76.021l30.14 76.437c2.684 6.805 10.254 10.547 16.908 8.358 6.655-2.19 9.874-9.481 7.19-16.286l-11.31-28.683c103.116 36.627 178.554 50.158 232.722 49.229 7.924-.137 15.426-.584 22.516-1.322 26.309 51.123 79.887 97.015 161.069 104.208 71.754 6.357 151.122-33.207 215.146-84.031 64.162-50.932 116.624-116.136 132.892-166.062 2.165-6.643-1.626-14.17-8.467-16.81-6.841-2.642-14.141.601-16.306 7.244zm-418.304 96.973c-8.015 12.012-23.575 23.622-51.079 29.66-7.998-22.217-9.922-43.988-6.488-61.53 3.717-18.994 13.35-31.905 27.159-37.122 10.362-3.914 22.857 1.463 31.502 16.716 8.395 14.812 10.234 35.298-1.094 52.276z" fill="#1C1C1C"/></svg>