<svg width="39" height="39" fill="none" xmlns="http://www.w3.org/2000/svg" filter="blur(10px)"><path fill-rule="evenodd" clip-rule="evenodd" d="M19.252 36.68c9.529 0 17.253-7.723 17.253-17.252 0-9.528-7.725-17.252-17.253-17.252S2 9.9 2 19.428c0 9.529 7.724 17.253 17.252 17.253zm0 2c10.633 0 19.253-8.619 19.253-19.252 0-10.632-8.62-19.252-19.253-19.252C8.62.176 0 8.796 0 19.43c0 10.63 8.62 19.25 19.252 19.25z" fill="#1F2128"/><path fill-rule="evenodd" clip-rule="evenodd" d="M19.252 36.68c9.529 0 17.253-7.723 17.253-17.252 0-9.528-7.725-17.252-17.253-17.252S2 9.9 2 19.428c0 9.529 7.724 17.253 17.252 17.253zm0 2c10.633 0 19.253-8.619 19.253-19.252 0-10.632-8.62-19.252-19.253-19.252C8.62.176 0 8.796 0 19.43c0 10.63 8.62 19.25 19.252 19.25z" fill="#fff" fill-opacity=".45"/></svg>