<svg width="94" height="94" fill="none" xmlns="http://www.w3.org/2000/svg" filter="blur(10px)"><path d="M47 0l4.585 23.951L64.986 3.578l-4.93 23.883 20.178-13.695L66.54 33.944l23.882-4.93L70.05 42.415 94 47l-23.951 4.585 20.373 13.401-23.882-4.93 13.694 20.178L60.056 66.54l4.93 23.882L51.585 70.05 47 94l-4.585-23.951-13.401 20.373 4.93-23.882-20.178 13.694L27.46 60.056l-23.882 4.93L23.95 51.585 0 47l23.951-4.585L3.578 29.014l23.883 4.93-13.695-20.178L33.944 27.46l-4.93-23.882L42.415 23.95 47 0z" fill="#CFD2DD"/></svg>