<svg id="Layer_1" data-name="Layer 1" xmlns="http://www.w3.org/2000/svg" viewBox="0 0 543.7 528"><defs><style>.cls-1{fill:none;}</style></defs><title>audius</title><path d="M583.1,636.3l-3.1-.7c-9.5-1.6-15.8-8.1-16.9-17.7a51.2,51.2,0,0,1-.3-5.6v-28H577c0,.8.1,1.5.1,2.1v25.6a18.6,18.6,0,0,0,.7,5.2c1,4,4,6.2,8.2,6.3a11.4,11.4,0,0,0,2.6-.2c4-.7,6.5-3.4,7.1-7.6.1-1.1.2-2.2.2-3.3V584.5a110.1,110.1,0,0,1,14.2-.1,5.9,5.9,0,0,1,.2,1.4c0,9.1,0,18.1-.1,27.2a30.6,30.6,0,0,1-.9,7.4c-1.8,8-6.9,12.9-14.8,14.9l-4.8,1Z" transform="translate(-224.6 -157.4)"/><path d="M393.6,636.3l-2.9-.7c-9.3-1.6-15.4-7.8-16.7-17.2a36.4,36.4,0,0,1-.4-5.7c-.1-9-.1-17.9-.1-26.8,0-.5.1-.9.1-1.4s12.5-.4,14.3,0v27.7a22.5,22.5,0,0,0,.7,5.2,7.7,7.7,0,0,0,6.6,5.8,11.1,11.1,0,0,0,5.7-.3c3.7-1.4,5.2-4.3,5.6-7.9a24.4,24.4,0,0,0,.1-2.7V584.6c1.4-.5,12.3-.5,14.3-.2,0,.4.1.7.1,1,0,9.8,0,19.6-.1,29.4a23.6,23.6,0,0,1-1.7,8.7c-2.5,6.4-7.3,10.1-13.9,11.7l-4.7,1.1Z" transform="translate(-224.6 -157.4)"/><path d="M654.2,636.3l-6-1a34.4,34.4,0,0,1-13.8-6.1l-1.4-1.1-.4-.6c2.6-3,5.1-6.1,7.7-9.2l1.6,1.1a26.9,26.9,0,0,0,13.1,4.9,22.7,22.7,0,0,0,4.5-.3,3.9,3.9,0,0,0,1.8-.6,2.9,2.9,0,0,0,.1-5,14,14,0,0,0-3.8-1.6c-2.8-.9-5.7-1.4-8.5-2.2a59.5,59.5,0,0,1-5.9-2.2c-11.6-5-9.6-19.3-2.9-24.5a21.1,21.1,0,0,1,11.2-4.4,35.8,35.8,0,0,1,16.2,2.1,26.3,26.3,0,0,1,7.9,4.6l-7,9.8-1.5-.8a23.7,23.7,0,0,0-11.4-4,13.3,13.3,0,0,0-4,.3,3,3,0,0,0-2.5,2.6,2.9,2.9,0,0,0,2,3.2,43.6,43.6,0,0,0,5.1,1.7c3.3,1,6.8,1.8,10.1,2.9a17.9,17.9,0,0,1,6.9,4,11.5,11.5,0,0,1,3.5,7.1c1,7.9-2.4,13.9-9.2,16.9a32.1,32.1,0,0,1-7.5,2.1,7,7,0,0,0-1.4.3Z" transform="translate(-224.6 -157.4)"/><path d="M540.9,539.1H414.3a8.9,8.9,0,0,1-7.9-13,17.4,17.4,0,0,1,1-1.9l33.8-58.4c1-1.7,2-3.3,3.8-4.1a13.4,13.4,0,0,1,3.9-1.1,10.5,10.5,0,0,1,2.5-.1h79.2a14.6,14.6,0,0,0,2.9-.2,8.9,8.9,0,0,0,6.3-13c-1.1-2.2-2.4-4.3-3.7-6.5q-20.4-35.2-40.6-70.5a9.8,9.8,0,0,0-5.5-4.9,8.9,8.9,0,0,0-10.6,3.9c-1.9,3.1-3.7,6.3-5.6,9.5l-35.9,62.2a10,10,0,0,1-9.5,5.5H360.6a14.2,14.2,0,0,1-3.6-.4,9,9,0,0,1-5.6-12.5,10.9,10.9,0,0,1,.8-1.5L478.7,213l1-1.6a9.1,9.1,0,0,1,15,0,3.5,3.5,0,0,1,.7,1.2q90.1,156.2,180.1,312.3a10.1,10.1,0,0,1,1.3,7.7,9,9,0,0,1-8.4,6.6H540.9Z" transform="translate(-224.6 -157.4)"/><path d="M448,635.2V584.4l1.4-.2h19.2a35.8,35.8,0,0,1,11.3,2c10.3,3.5,16.2,11.7,16.5,22.6.1,8.3-2.7,15.3-9.3,20.5a26.9,26.9,0,0,1-12.3,5.2,54,54,0,0,1-8,.7H448Zm14.2-12.7a40.6,40.6,0,0,0,9.9-.2,11.8,11.8,0,0,0,9.6-10.2,12.2,12.2,0,0,0,.1-3.3,11.6,11.6,0,0,0-8.4-11.2c-3.7-1.2-7.4-.8-11.2-.8Z" transform="translate(-224.6 -157.4)"/><path d="M312.1,635.2H297.3q10.8-25.8,21.6-51.3h13.7l21.7,51.2H339.1c-1.2-2.9-2.4-5.9-3.7-8.9H315.8Zm13.8-34h-.4L320,614.9c2,.3,9.8.3,11.2-.1Z" transform="translate(-224.6 -157.4)"/><path d="M521.6,584.3h14v50.8h-14Z" transform="translate(-224.6 -157.4)"/><rect class="cls-1" width="542.7" height="21.22"/><rect class="cls-1" x="1" y="506.7" width="542.7" height="21.22"/></svg>