<svg id="Layer_1" data-name="Layer 1" xmlns="http://www.w3.org/2000/svg" viewBox="0 0 853 817"><defs><style>.cls-1{fill:none;}.cls-2{fill-rule:evenodd;}</style></defs><title>galxe</title><rect class="cls-1" x="174" width="542.7" height="21.22"/><rect class="cls-1" x="126.8" y="795.8" width="542.7" height="21.22"/><path class="cls-2" d="M71.6,510.6,221.4,385.9a17.6,17.6,0,0,0,4.3-5.8,15.7,15.7,0,0,0,1.7-7,17.1,17.1,0,0,0-1.2-7.1,17.7,17.7,0,0,0-3.9-6.1,17.2,17.2,0,0,0-6.1-3.9,17.5,17.5,0,0,0-7.1-1.3,18.5,18.5,0,0,0-7,1.7,19.4,19.4,0,0,0-5.8,4.4Zm72.2-132.9L80.7,425l47.4-63a11.1,11.1,0,0,1,3.6-3.2,12.2,12.2,0,0,1,4.6-1.3,10.8,10.8,0,0,1,4.7.7,9.6,9.6,0,0,1,4,2.6,10.7,10.7,0,0,1,2.6,4,10.8,10.8,0,0,1,.7,4.7,12.2,12.2,0,0,1-1.3,4.6A11.1,11.1,0,0,1,143.8,377.7Zm76.4,76.4-63.1,47.3,47.3-63a12.2,12.2,0,0,1,3.6-3.2,12.7,12.7,0,0,1,4.6-1.3,11.6,11.6,0,0,1,8.8,3.2,13.6,13.6,0,0,1,2.6,4.1,10.9,10.9,0,0,1-.7,9.3A9.8,9.8,0,0,1,220.2,454.1Z" transform="translate(-71.6 -10.1)"/><path class="cls-2" d="M311,432.7c0-20.6,17.5-38.5,41.7-38.5a45.1,45.1,0,0,1,30.4,11.3,1.2,1.2,0,0,0,1.6,0l14.6-15.3a1.1,1.1,0,0,0,0-1.6,68.7,68.7,0,0,0-46.6-17.7c-35.9,0-65.1,27-65.1,61.8s29.2,61.8,65.1,61.8c16,0,31.8-5.4,43.5-14.6l4-3.1a1.1,1.1,0,0,0,.4-.9V423.8a1.1,1.1,0,0,0-1.1-1.2H369.9a1.2,1.2,0,0,0-.8.4l-18.9,20a1.1,1.1,0,0,0,.8,1.9h25.1a1.1,1.1,0,0,1,1.1,1.1v17.9a1.2,1.2,0,0,1-.5,1,50,50,0,0,1-24,6.2C328.5,471.1,311,453.3,311,432.7Zm397.5-59.1H682.3a1.2,1.2,0,0,0-.9,1.8l42.7,57.3a1.2,1.2,0,0,1,0,1.4l-42.6,55.8a1.1,1.1,0,0,0,.9,1.8h28.3a1.1,1.1,0,0,0,.9-.5l27.2-36.4a1.1,1.1,0,0,1,1.8,0l27.2,36.4a1.1,1.1,0,0,0,.9.5H797a1.1,1.1,0,0,0,.9-1.8l-42.6-55.8a1.2,1.2,0,0,1-.1-1.4L798,375.4a1.2,1.2,0,0,0-.9-1.8H770.9a1.1,1.1,0,0,0-.9.5l-29.4,38.4a1.1,1.1,0,0,1-1.8,0l-29.4-38.4A1.1,1.1,0,0,0,708.5,373.6Zm-206.7,0H476.5a1.2,1.2,0,0,0-1,.7L424.1,490.1a1.2,1.2,0,0,0,1.1,1.6h24.2a1.2,1.2,0,0,0,1.1-.7l9.8-22.7H518l9.8,22.7a1.2,1.2,0,0,0,1.1.7h24.2a1.1,1.1,0,0,0,1.1-1.6L502.8,374.3A1.2,1.2,0,0,0,501.8,373.6Zm7.1,73.5H469.4l18.7-43.2a1.2,1.2,0,0,1,2.1,0Zm73.2-73.5a1.1,1.1,0,0,0-1.1,1.2V490.6a1.1,1.1,0,0,0,1.1,1.1h65.2a1.2,1.2,0,0,0,.8-.4l15-19a1.1,1.1,0,0,0-.9-1.8H607.7V374.8a1.1,1.1,0,0,0-1.1-1.2Zm269.5,22.3a1.1,1.1,0,0,1,1.2-1.1h68.4a1.1,1.1,0,0,0,1.2-1.1V374.8a1.2,1.2,0,0,0-1.2-1.2H826a1.1,1.1,0,0,0-1.1,1.1V490.6a1.1,1.1,0,0,0,1.1,1.1h97.5a1.1,1.1,0,0,0,1.1-1.1v-19a1.1,1.1,0,0,0-1.1-1.1H852.8a1.1,1.1,0,0,1-1.2-1.1V443.8a1.1,1.1,0,0,1,1.2-1.1h64a1.1,1.1,0,0,0,1.1-1.1v-19a1.1,1.1,0,0,0-1.1-1.1h-64a1.1,1.1,0,0,1-1.2-1.1Z" transform="translate(-71.6 -10.1)"/></svg>