<svg id="Layer_1" data-name="Layer 1" xmlns="http://www.w3.org/2000/svg" viewBox="0 0 974.41 843.71"><title>hyperbass</title><path d="M234.61,442.41c9.14-4.69,17.65-9.11,26.21-13.45q105.27-53.35,210.5-106.81c6.71-3.42,12.15-3.72,19.12-.35Q612.87,381,735.57,439.53c1.63.79,3.21,1.71,5.54,3-1.84,1.41-3.24,2.65-4.79,3.63l-151.87,96.2c-4.26,2.7-8.11,2.79-12.61.55-28-14-56.08-27.71-84-41.72-4.82-2.41-8.79-2.44-13.54.27-23.27,13.29-46.75,26.19-70,39.44-4.63,2.63-8.29,2.49-12.85-.37Q315.66,493,239.72,445.86C238.19,444.91,236.73,443.84,234.61,442.41Z" transform="translate(0 -0.01)"/><path d="M488.46,76.3c10.85-3.59,21.77-7,32.56-10.8Q611.64,33.66,702.18,1.59a23.88,23.88,0,0,1,15.59-.52Q844,39.57,970.25,78c1.39.43,2.73,1,4.16,1.55-.18.74-.15,1.32-.43,1.64-13,15-25.55,29.8-44.75,38.64-48.64,22.4-96.44,46.62-144.49,70.27-5.19,2.56-9.76,2.85-15.18.67Q631.16,135.1,492.66,79.69c-1.48-.59-2.88-1.38-4.32-2.08A11.81,11.81,0,0,1,488.46,76.3Z" transform="translate(0 -0.01)"/><path d="M2.46,74.05c11-3.06,21.18-6,31.43-8.74Q148.25,34.44,262.66,3.51a36.36,36.36,0,0,1,23.26,1.12c62.76,23,125.65,45.63,188.5,68.39,2.15.78,4.23,1.76,7.46,3.11-6,2.55-10.84,4.68-15.76,6.73q-127.75,53.28-255.5,106.6c-5.6,2.34-10.54,2.63-16.16-.16-51.38-25.56-102.91-50.83-154.21-76.49a52.12,52.12,0,0,1-14.41-11.14C17.81,93,10.55,83.72,2.46,74.05Z" transform="translate(0 -0.01)"/><path d="M235.19,433.22c-2.66-13.26-5.19-25.81-7.68-38.36Q212.77,320.43,197.93,246c-.68-3.42-.14-4.93,3-6.48,15.67-7.66,31.21-15.61,47.39-23.75,4.25,21.27,8.41,42.08,12.72,63.67l10-5Q340,239.8,408.94,205.26c3.89-1.94,4.8-3.85,3.93-8-4-19.21-7.73-38.49-11.66-58.33l51.19-25.81c2,9.83,3.92,19,5.75,28.28Q473.87,220.74,489.66,300c.73,3.66,0,5.26-3.27,6.87-15.53,7.6-30.93,15.46-47.13,23.61-4.25-21.29-8.4-42.07-12.64-63.33-1.75.72-3.25,1.23-4.66,1.94q-72,36.18-144.1,72.33c-3.07,1.53-4.06,3.08-3.35,6.48,3.81,18.41,7.31,36.89,11.18,55.28.69,3.27,0,4.65-2.94,6.09C267.09,417,251.54,425,235.19,433.22Z" transform="translate(0 -0.01)"/><path d="M484.11,503c8.62,4.16,16.09,7.71,23.51,11.35,21.66,10.63,43.26,21.38,65,31.89,4.51,2.18,6.16,5,6,10.13-1.66,43.76-3,87.52-4.48,131.29q-1.41,41.69-2.89,83.36c-.12,3.42,0,6.84,0,11.32,9.4-7.25,17.93-13.8,26.43-20.4q72.66-56.37,145.22-112.84c4.52-3.52,8.2-3.87,13-.86,6.34,3.93,13.07,7.21,20.29,11.12-2.29,1.86-4.14,3.41-6,4.89-67.42,52.79-135,105.4-202.07,158.6-8.14,6.45-14.28,7.92-22.27,1.43-2.29-1.86-5.45-2.66-7.74-4.51-4.44-3.59-7.89-2.47-11.88.9-7.76,6.57-15.84,12.74-23.81,19-1.54,1.22-3.19,2.3-5.67,4.06C492.47,730,488.32,617.13,484.11,503Z" transform="translate(0 -0.01)"/><path d="M212,657.65c4.53-2.84,8.8-5.11,12.61-8s6.67-2,10.13.68c16.77,13.15,33.7,26.11,50.55,39.17l116.12,90c1,.78,2.08,1.51,3.29,2.38,0-8.79.21-17.18,0-25.55q-1.16-38.43-2.61-76.86-2.22-61.14-4.57-122.27c-.23-6,1.66-10.65,7.17-13.69q34.55-19,69-38.17a38.62,38.62,0,0,1,4.3-1.67c4.14,112.86,8.25,225.2,12.41,338.66-3.65-2.37-6.55-4.15-9.35-6.09-8.08-5.59-16.16-11.17-24.15-16.89-3-2.17-5.78-2.64-9.17-.65-5.17,3-10.77,5.33-15.79,8.55-4.78,3.07-8.36,2.27-12.55-1.15q-46.25-37.79-92.71-75.29L218,662.72C216,661.17,214.25,659.51,212,657.65Z" transform="translate(0 -0.01)"/><path d="M532.9,133.89,583,158.55c-3.25,14.11-6.51,28.28-9.82,42.7,11.81,5.86,23.39,11.65,35,17.36,28.81,14.17,57.66,28.26,86.43,42.52a12.66,12.66,0,0,1,4.93,4.59q28.2,47.14,56.09,94.46a9.88,9.88,0,0,1,1.32,6.46c-4.5,20.12-9.27,40.17-14.2,61.27L493.08,305.1c3.34-14.32,6.6-28.34,10-43l198.54,97.64c-1.21-2.42-1.8-3.82-2.57-5.11-11.37-19.19-22.68-38.42-34.26-57.48a17.37,17.37,0,0,0-6.86-6q-70-34.66-140.12-69.06c-1.48-.73-2.93-1.52-4.84-2.51C519.57,191.23,526.15,163,532.9,133.89Z" transform="translate(0 -0.01)"/><path d="M268.81,572c.24-19.26,2.23-36.86,10.6-53.15,8-15.5,21-18.19,34.23-6.76,14.88,12.9,24.15,29.6,30.7,47.79,11.41,31.7,16.66,64.34,12.85,98.06-1.26,11.15-4.15,21.91-10.28,31.52-8.35,13.11-19.74,15.07-32.09,5.54-14.47-11.17-23.16-26.46-29.66-43A233.92,233.92,0,0,1,268.81,572Z" transform="translate(0 -0.01)"/><path d="M81.75,244.27c.3-18,2.56-35.49,11-51.76,7.78-15,20.48-17.66,33.47-6.63,15.86,13.47,25.27,31.19,32.07,50.36,9.9,27.89,14.64,56.75,12.74,86.3-.69,10.79-3.94,21.48-6.7,32-1.06,4-3.66,7.83-6.15,11.32-7.24,10.17-17.53,11.89-27.86,4.9-13.14-8.9-21.61-21.63-28.09-35.66-12.4-26.9-18.76-55.33-20.11-84.9C82,248.25,81.86,246.26,81.75,244.27Z" transform="translate(0 -0.01)"/><path d="M708.1,563.35c.74,38.22-7.1,72.4-23.74,104.47-5.46,10.53-12.06,20.35-21.87,27.49-13.22,9.63-25.52,6.85-33-7.72-7.87-15.28-10.87-31.82-10.61-48.78.43-28.12,4.85-55.6,15.33-81.91,5.78-14.51,13.2-28,23.69-39.61a46.64,46.64,0,0,1,13.48-10c8.26-4.15,16.7-1.69,22.76,5.64,8.63,10.45,11.62,23,13,36C707.67,554.45,707.87,560,708.1,563.35Z" transform="translate(0 -0.01)"/><path d="M801.54,308.87c.54-37.54,10.38-72.38,29-104.81a56.28,56.28,0,0,1,20.19-21c10.55-6.23,20.1-4.12,27.66,5.54,6.49,8.29,8,18.16,9.7,28,7.73,44.14-.62,85.75-20.81,125.16-4.35,8.49-10.58,16.19-16.9,23.42-3.34,3.82-8.45,6.52-13.26,8.51-7.12,3-13.81.92-19.24-4.47-8.17-8.1-11.91-18.42-13.42-29.48C803,329.47,802.47,319.15,801.54,308.87Z" transform="translate(0 -0.01)"/><path d="M776.08,655.9c-8.77-4.82-16.8-8.81-24.27-13.66-1.8-1.17-2.61-5.29-2.38-7.92,1.53-17.24,3.44-34.45,5.27-51.67q4.74-44.45,9.55-88.88c1.34-12.42,2.48-24.86,4.33-37.2a13.62,13.62,0,0,1,5.15-8.36c40.71-27.47,81.62-54.65,122.42-82a10.56,10.56,0,0,1,10.28-1.39c7.5,2.63,15.13,4.89,23.59,7.58-2.55,2-4.39,3.59-6.38,5q-61.38,42.54-122.84,84.94c-5.48,3.76-7.94,8.21-8.52,14.74-4.45,50.75-9.15,101.48-13.78,152.21C777.73,637.71,777,646.15,776.08,655.9Z" transform="translate(0 -0.01)"/><path d="M48.36,376.61c7.89-4,14.94-7.41,21.75-11.23,3.78-2.13,6.67-1.46,10,.81q37.32,25.07,74.78,49.92c15.37,10.26,30.65,20.67,46.16,30.71,4.52,2.93,6.51,6.55,7,11.76,2.85,27.33,5.93,54.63,8.89,81.94,3.51,32.29,6.89,64.58,10.52,96.85.54,4.82-.8,8-5,10.3s-8.51,5.15-13.57,8.25c-.62-4.46-1.26-8.32-1.67-12.2Q200.9,582.87,194.57,522c-1.41-13.41-3.08-26.8-4.21-40.24-.52-6.3-2.84-10.61-8.28-14.27-42.85-28.78-85.51-57.85-128.22-86.85C52.25,379.54,50.69,378.33,48.36,376.61Z" transform="translate(0 -0.01)"/><path d="M1.54,77.63C2.79,79.09,4,80.55,5.27,82c3.52,4.22,6.54,9,10.63,12.57,10.59,9.21,15,21.08,17.19,34.47q18,109.59,36.31,219.13c2.62,15.6,2.92,12.82-9.9,19.32L45.25,374.7C30.11,275.49,15.05,176.89,0,78.28Z" transform="translate(0 -0.01)"/><path d="M934.13,370.52c-8.84-2.79-17.06-5.41-25.29-8-3.6-1.12-3.7-3.78-3.2-6.79q7.51-45,15-90.08,11.8-70.89,23.55-141.79c.78-4.74,2.25-8.74,5.81-12.26,7-6.89,13.52-14.24,20.28-21.37.84-.88,1.87-1.6,3.93-3.33C960.75,182.22,947.47,276.14,934.13,370.52Z" transform="translate(0 -0.01)"/></svg>