<?xml version="1.0" encoding="utf-8"?>
<!-- Generator: Adobe Illustrator 23.0.0, SVG Export Plug-In . SVG Version: 6.00 Build 0)  -->
<svg version="1.1" id="Layer_1" xmlns="http://www.w3.org/2000/svg" xmlns:xlink="http://www.w3.org/1999/xlink" x="0px" y="0px"
	 viewBox="0 0 128 38" style="enable-background:new 0 0 128 38;" xml:space="preserve">
<g>
	<path d="M29.73,38c-0.92-0.6-1.11-1.47-1.09-2.53c0.06-2.8,0.02-5.6,0.02-8.39c0-0.31,0.02-0.65-0.07-0.94
		c-0.06-0.19-0.34-0.46-0.46-0.43c-0.22,0.05-0.5,0.26-0.56,0.46c-0.11,0.32-0.07,0.7-0.07,1.05c0,2.48,0.01,4.97-0.01,7.45
		c-0.01,1.34-0.43,1.77-1.77,1.79c-1.62,0.02-3.23,0.02-4.85,0c-1.27-0.02-1.67-0.45-1.68-1.74c-0.01-2.88-0.01-5.75,0-8.63
		c0-1.29,0.4-1.69,1.71-1.69c4.77-0.01,9.54-0.01,14.32,0c1.38,0,1.74,0.39,1.74,1.77c0.01,3.19-0.04,6.39,0.03,9.58
		c0.02,1.01-0.23,1.75-1.1,2.26C33.84,38,31.78,38,29.73,38z"/>
	<path d="M128,29.95c-0.63,0.98-1.56,1.11-2.65,1.09c-2.6-0.06-5.21-0.01-7.81-0.02c-1.39-0.01-1.73-0.36-1.74-1.76
		c-0.01-1.85,0.01-3.71,0-5.56c-0.01-1.64-0.49-2.13-2.09-2.14c-0.71-0.01-1.42,0.02-2.13-0.02c-0.92-0.05-1.46-0.49-1.46-1.49
		c0.01-3.04,0.01-6.07,0-9.11c0-1,0.55-1.44,1.48-1.45c1.78-0.02,3.55-0.02,5.33,0c1.1,0.01,1.5,0.67,1.5,1.7
		c-0.01,3.08-0.01,6.15,0,9.23c0,1.77,0.54,2.3,2.34,2.31c1.62,0.01,3.24,0.06,4.85-0.02c1.04-0.05,1.82,0.22,2.39,1.09
		C128,25.85,128,27.9,128,29.95z"/>
	<path d="M99.66,9.49c2.33,0,4.65-0.01,6.98,0c1.48,0.01,1.83,0.36,1.83,1.8c0.01,3.27,0.01,6.54,0,9.81c0,1.38-0.36,1.81-1.69,1.86
		c-1.61,0.05-3.23,0.05-4.85,0c-1.3-0.04-1.75-0.54-1.75-1.85c-0.01-2.95,0-5.91-0.01-8.86c0-0.35,0.01-0.72-0.09-1.05
		c-0.05-0.18-0.32-0.4-0.49-0.4s-0.45,0.22-0.49,0.39C99,11.56,99,11.97,99,12.36c-0.01,2.44,0,4.88-0.01,7.33
		c-0.01,1.43-0.41,1.85-1.81,1.87c-1.62,0.02-3.23,0.03-4.85,0c-1.21-0.02-1.63-0.46-1.64-1.65c-0.01-2.92-0.01-5.83,0-8.75
		c0.01-1.22,0.41-1.64,1.63-1.65C94.77,9.47,97.22,9.49,99.66,9.49z"/>
	<path d="M31.97,15.07c0-1.62,0.02-3.23-0.01-4.85c-0.02-1.27-0.63-1.89-1.89-1.9c-1.89-0.03-3.79,0-5.68-0.01
		c-1.36-0.01-1.83-0.4-1.86-1.71c-0.05-1.65-0.04-3.31,0-4.97c0.03-1.06,0.55-1.65,1.72-1.63c2.92,0.04,5.84,0,8.76,0.02
		c1.23,0.01,1.58,0.38,1.59,1.66c0.01,1.93-0.01,3.86,0.01,5.8c0.01,1.46,0.54,1.98,2,2c0.75,0.01,1.5-0.02,2.25,0.01
		c0.94,0.04,1.44,0.52,1.44,1.5c-0.01,3-0.01,5.99,0,8.99c0,1.02-0.52,1.55-1.52,1.56c-1.74,0.02-3.47,0.02-5.21,0
		c-1.05-0.01-1.59-0.54-1.58-1.62C31.98,18.31,31.97,16.69,31.97,15.07L31.97,15.07z"/>
	<path d="M61.1,15.08c0-1.58,0.01-3.15,0-4.73c-0.02-1.42-0.6-2.02-2.01-2.03c-1.85-0.02-3.71,0-5.56-0.01
		c-1.37-0.01-1.83-0.39-1.87-1.7c-0.05-1.65-0.04-3.31,0-4.97C51.69,0.58,52.2-0.01,53.37,0c2.92,0.04,5.84,0,8.76,0.02
		c1.24,0.01,1.59,0.37,1.59,1.66c0.01,1.97-0.01,3.94,0.01,5.91c0.01,1.32,0.57,1.86,1.87,1.89c0.79,0.02,1.58-0.01,2.37,0.01
		c0.94,0.03,1.45,0.5,1.44,1.49c-0.01,3-0.01,5.99,0,8.99c0,1.09-0.59,1.57-1.63,1.58c-1.7,0.01-3.39,0.01-5.09,0
		c-1.05-0.01-1.6-0.53-1.59-1.62C61.11,18.31,61.1,16.7,61.1,15.08L61.1,15.08z"/>
	<path d="M79.86,21.55c-2.33,0-4.65,0.01-6.98,0c-1.45-0.01-1.83-0.4-1.84-1.82c-0.01-2.84-0.01-5.68,0-8.51
		c0-1.31,0.39-1.71,1.67-1.73c1.66-0.02,3.31-0.02,4.97,0c1.2,0.02,1.64,0.45,1.65,1.65c0.02,2.48,0.01,4.97,0.01,7.45
		c0,0.32-0.05,0.65,0.04,0.94c0.08,0.26,0.33,0.46,0.51,0.69c0.2-0.24,0.57-0.48,0.58-0.73c0.07-1.14,0.04-2.28,0.04-3.43
		c0-1.66,0.01-3.31,0-4.97c-0.01-1.07,0.52-1.61,1.58-1.62c1.77-0.01,3.55-0.01,5.32,0c0.9,0.01,1.38,0.48,1.39,1.4
		c0,3.07,0,6.15,0,9.22c0,1.18-0.77,1.44-1.74,1.44C84.68,21.56,82.27,21.55,79.86,21.55z"/>
	<path d="M26.21,19.56c-0.56-0.11-1.12-0.31-1.69-0.33c-2.47-0.06-2.49-0.05-2.49-2.56c0-1.77-0.01-3.55,0-5.32
		c0.01-1.44,0.4-1.85,1.81-1.86c1.66-0.02,3.31,0,4.97,0c1.02,0,1.52,0.48,1.52,1.52c-0.01,3-0.02,5.99,0,8.99
		c0.01,1.05-0.51,1.55-1.5,1.56c-4.93,0.02-9.86,0.02-14.79,0c-0.98,0-1.51-0.52-1.5-1.56c0.02-2.96,0-5.91,0.01-8.87
		c0.01-1.2,0.42-1.6,1.66-1.62c1.66-0.02,3.31-0.02,4.97,0c1.21,0.02,1.65,0.45,1.66,1.65c0.02,2.4,0,4.81,0.01,7.21
		c0.01,1.59,0.45,2.01,2.05,2.02c0.75,0,1.5,0.03,2.25-0.01c0.35-0.02,0.7-0.16,1.05-0.25C26.21,19.93,26.21,19.75,26.21,19.56z"/>
	<path d="M56.38,30.5c0,1.42,0.01,2.84,0,4.26c-0.01,1.25-0.38,1.69-1.58,1.7c-4.85,0.02-9.7,0.02-14.56,0
		c-1.21,0-1.62-0.46-1.63-1.67c-0.01-2.92-0.01-5.83,0-8.75c0.01-1.2,0.42-1.62,1.65-1.64c1.66-0.02,3.31-0.02,4.97,0
		c1.25,0.02,1.67,0.45,1.68,1.75c0.02,2.37,0,4.73,0.01,7.1c0.01,1.6,0.44,2.03,2.03,2.04c0.87,0,1.74,0.02,2.6-0.02
		c0.23-0.01,0.44-0.24,0.66-0.38c-0.18-0.22-0.34-0.61-0.55-0.64c-0.7-0.11-1.41-0.1-2.12-0.11c-0.98-0.01-1.45-0.49-1.45-1.46
		c0-2.25,0-4.49,0-6.74c0-1.02,0.55-1.52,1.55-1.53c1.78-0.01,3.55-0.01,5.33,0c0.97,0.01,1.43,0.52,1.42,1.49
		C56.37,27.42,56.38,28.96,56.38,30.5z"/>
	<path d="M67,24.39c2.33,0,4.66-0.01,6.98,0c1.46,0.01,1.8,0.37,1.81,1.83c0,0.59,0,1.18,0,1.77c-0.01,1.53-0.32,1.83-1.91,1.84
		c-1.85,0.01-3.71-0.01-5.56,0.01c-1.46,0.01-1.98,0.53-2,2c-0.01,0.83-0.04,1.66,0.03,2.48c0.03,0.28,0.33,0.54,0.51,0.81
		c0.21-0.28,0.54-0.54,0.59-0.85c0.1-0.62,0.01-1.26,0.05-1.89c0.05-0.88,0.49-1.39,1.42-1.39c1.82,0,3.63,0,5.45,0
		c0.98,0,1.44,0.51,1.42,1.48c-0.01,0.75,0.01,1.5,0,2.25c-0.02,1.29-0.39,1.7-1.69,1.71c-2.68,0.02-5.37,0.01-8.05,0.01
		c-2.09,0-4.18,0.01-6.27-0.01c-1.35-0.01-1.75-0.43-1.76-1.78c-0.01-2.84-0.01-5.68,0-8.52c0-1.37,0.38-1.75,1.76-1.76
		C62.19,24.38,64.6,24.39,67,24.39z M66.07,27.15c0.31,0.54,0.56,0.98,0.8,1.41c0.21-0.48,0.58-0.95,0.58-1.43s-0.35-0.97-0.55-1.46
		C66.64,26.13,66.38,26.59,66.07,27.15z"/>
	<path d="M105.5,36.46c-2.37,0-4.74,0.01-7.1,0c-1.46-0.01-1.79-0.36-1.81-1.83c0-0.35,0.01-0.71,0-1.06
		c-0.05-1.09,0.45-1.61,1.55-1.6c1.7,0.02,3.39-0.01,5.09,0.01c1.18,0.02,1.61,0.47,1.68,1.66c0.02,0.31-0.04,0.65,0.04,0.94
		c0.07,0.22,0.28,0.45,0.49,0.55c0.1,0.04,0.49-0.25,0.48-0.39c-0.01-1.04,0.07-2.13-0.22-3.11c-0.12-0.4-1.07-0.76-1.65-0.79
		c-1.93-0.1-3.87-0.03-5.8-0.04c-1.36-0.01-1.64-0.3-1.66-1.69c-0.01-1.1,0-2.21,0-3.31c0-0.93,0.5-1.39,1.39-1.39
		c4.97-0.01,9.95-0.01,14.92,0c0.95,0,1.41,0.54,1.48,1.48c0.16,2.35-0.21,2.77-2.59,2.77c-1.3,0-2.6,0.01-3.91,0
		c-1.38-0.02-1.73-0.38-1.81-1.74c-0.02-0.31-0.04-0.64-0.17-0.91c-0.08-0.16-0.37-0.3-0.56-0.3c-0.13,0-0.37,0.25-0.37,0.39
		c-0.01,0.94-0.15,1.95,0.15,2.79c0.16,0.46,1.11,0.85,1.72,0.89c1.93,0.11,3.87,0.03,5.8,0.05c1.39,0.01,1.72,0.36,1.73,1.78
		c0.01,1.03,0.01,2.05,0,3.08c-0.02,1.33-0.45,1.78-1.77,1.79C110.24,36.48,107.87,36.46,105.5,36.46z"/>
	<path d="M50.99,9.48c2.29,0,4.57-0.01,6.86,0c1.5,0,1.83,0.32,1.84,1.78c0.01,1.54-0.04,3.07,0.02,4.61
		c0.04,1.07-0.52,1.58-1.45,1.61c-1.77,0.07-3.55,0.07-5.32,0c-0.99-0.04-1.58-0.6-1.55-1.69c0.04-1.3,0.05-2.6-0.02-3.9
		c-0.02-0.39-0.35-0.76-0.54-1.14c-0.2,0.37-0.57,0.73-0.58,1.11c-0.05,2.56-0.02,5.12-0.03,7.68c0,1.63-0.38,1.99-2.04,2
		c-1.54,0.01-3.08,0.02-4.61-0.01c-1.22-0.02-1.64-0.45-1.65-1.65c-0.01-2.92-0.01-5.83,0-8.75c0.01-1.26,0.41-1.66,1.74-1.66
		C46.1,9.47,48.55,9.48,50.99,9.48z"/>
	<path d="M8.96,24.39c2.33,0,4.65,0,6.98,0c1.5,0,1.83,0.33,1.84,1.78c0.01,1.54-0.04,3.08,0.02,4.61c0.04,1.07-0.52,1.58-1.46,1.61
		c-1.77,0.07-3.55,0.07-5.32,0.01c-0.99-0.04-1.57-0.6-1.55-1.69c0.04-1.34,0.04-2.68-0.02-4.02c-0.02-0.35-0.35-0.68-0.54-1.02
		c-0.2,0.33-0.56,0.66-0.57,0.99c-0.05,2.6-0.03,5.2-0.03,7.8c-0.01,1.63-0.38,1.99-2.04,1.99c-1.54,0.01-3.08,0.02-4.61-0.01
		C0.44,36.43,0.02,36,0.01,34.81C0,31.89,0,28.98,0.01,26.06c0.01-1.26,0.41-1.66,1.74-1.66C4.15,24.38,6.56,24.39,8.96,24.39z"/>
	<path d="M86.38,24.39c2.37,0,4.73-0.01,7.1,0c1.39,0.01,1.73,0.35,1.74,1.76c0.01,1.54-0.04,3.07,0.02,4.61
		c0.04,1.06-0.49,1.59-1.44,1.63c-1.77,0.07-3.55,0.08-5.32,0.01c-0.98-0.04-1.59-0.58-1.56-1.68s0.07-2.21-0.02-3.31
		c-0.05-0.59-0.35-1.16-0.53-1.74c-0.99,0.33-0.59,1.18-0.6,1.8c-0.05,2.32-0.02,4.65-0.02,6.97c0,1.64-0.37,2.01-2.02,2.01
		c-1.5,0.01-3,0.02-4.49,0c-1.37-0.02-1.78-0.42-1.78-1.75c-0.01-2.88-0.01-5.75,0-8.63c0.01-1.28,0.4-1.67,1.72-1.68
		C81.57,24.38,83.97,24.39,86.38,24.39z"/>
</g>
</svg>
