<?xml version="1.0" encoding="utf-8"?>
<!-- Generator: Adobe Illustrator 23.0.0, SVG Export Plug-In . SVG Version: 6.00 Build 0)  -->
<svg version="1.1" id="Layer_1" xmlns="http://www.w3.org/2000/svg" xmlns:xlink="http://www.w3.org/1999/xlink" x="0px" y="0px"
	 viewBox="0 0 139 39" style="enable-background:new 0 0 139 39;" xml:space="preserve">
<style type="text/css">
	.st0{fill:url(#SVGID_1_);stroke:#000000;stroke-width:0.5;stroke-miterlimit:10;}
	.st1{fill:url(#SVGID_2_);stroke:#000000;stroke-width:0.5;stroke-miterlimit:10;}
	.st2{fill:url(#SVGID_3_);stroke:#000000;stroke-width:0.5;stroke-miterlimit:10;}
	.st3{fill:url(#SVGID_4_);stroke:#000000;stroke-width:0.5;stroke-miterlimit:10;}
	.st4{fill:url(#SVGID_5_);stroke:#000000;stroke-width:0.5;stroke-miterlimit:10;}
	.st5{fill:url(#SVGID_6_);stroke:#000000;stroke-width:0.5;stroke-miterlimit:10;}
	.st6{fill:url(#SVGID_7_);stroke:#000000;stroke-width:0.5;stroke-miterlimit:10;}
	.st7{fill:url(#SVGID_8_);stroke:#000000;stroke-width:0.5;stroke-miterlimit:10;}
	.st8{fill:url(#SVGID_9_);stroke:#000000;stroke-width:0.5;stroke-miterlimit:10;}
	.st9{fill:url(#SVGID_10_);stroke:#000000;stroke-width:0.5;stroke-miterlimit:10;}
	.st10{fill:url(#SVGID_11_);stroke:#000000;stroke-width:0.5;stroke-miterlimit:10;}
	.st11{fill:url(#SVGID_12_);stroke:#000000;stroke-width:0.5;stroke-miterlimit:10;}
	.st12{fill:url(#SVGID_13_);stroke:#000000;stroke-width:0.5;stroke-miterlimit:10;}
</style>
<g>
	<linearGradient id="SVGID_1_" gradientUnits="userSpaceOnUse" x1="23.2252" y1="39.0877" x2="38.206" y2="24.107">
		<stop  offset="0" style="stop-color:#39FF14"/>
		<stop  offset="1" style="stop-color:#BFFF00"/>
	</linearGradient>
	<path class="st0" d="M32.17,39c-1-0.62-1.21-1.5-1.18-2.58c0.07-2.85,0.03-5.7,0.02-8.56c0-0.32,0.02-0.66-0.07-0.95
		c-0.06-0.19-0.36-0.47-0.5-0.44c-0.24,0.05-0.54,0.26-0.61,0.47c-0.12,0.33-0.08,0.71-0.08,1.07c-0.01,2.53,0.01,5.06-0.01,7.59
		c-0.01,1.37-0.47,1.8-1.91,1.82c-1.75,0.02-3.5,0.02-5.25,0c-1.38-0.02-1.81-0.46-1.82-1.77c-0.01-2.93-0.01-5.87,0-8.8
		c0.01-1.31,0.43-1.72,1.85-1.72c5.16-0.01,10.33-0.01,15.49,0c1.49,0,1.88,0.39,1.89,1.8c0.01,3.25-0.04,6.51,0.03,9.76
		c0.02,1.03-0.25,1.78-1.19,2.3C36.62,39,34.4,39,32.17,39z"/>
	<linearGradient id="SVGID_2_" gradientUnits="userSpaceOnUse" x1="121.8977" y1="27.7269" x2="133.5042" y2="16.1204">
		<stop  offset="0" style="stop-color:#39FF14"/>
		<stop  offset="1" style="stop-color:#BFFF00"/>
	</linearGradient>
	<path class="st1" d="M138.52,30.8c-0.68,1-1.69,1.13-2.86,1.11c-2.82-0.06-5.64-0.01-8.46-0.02c-1.5-0.01-1.88-0.36-1.88-1.8
		c-0.01-1.89,0.01-3.78-0.01-5.67c-0.01-1.67-0.53-2.17-2.27-2.18c-0.77-0.01-1.54,0.02-2.31-0.02c-0.99-0.05-1.58-0.5-1.58-1.52
		c0.01-3.1,0.01-6.19,0-9.29c0-1.02,0.6-1.47,1.6-1.48c1.92-0.02,3.84-0.02,5.77,0c1.2,0.01,1.63,0.68,1.62,1.73
		c-0.01,3.14-0.01,6.27,0,9.41c0,1.81,0.58,2.34,2.53,2.35c1.75,0.01,3.51,0.06,5.25-0.02c1.12-0.05,1.97,0.22,2.58,1.12
		C138.52,26.62,138.52,28.71,138.52,30.8z"/>
	<linearGradient id="SVGID_3_" gradientUnits="userSpaceOnUse" x1="100.6259" y1="23.9174" x2="115.6158" y2="8.9275">
		<stop  offset="0" style="stop-color:#39FF14"/>
		<stop  offset="1" style="stop-color:#BFFF00"/>
	</linearGradient>
	<path class="st2" d="M107.85,9.93c2.52,0,5.03-0.01,7.55,0c1.6,0.01,1.98,0.37,1.98,1.84c0.01,3.33,0.01,6.67,0,10
		c0,1.4-0.39,1.85-1.83,1.89c-1.75,0.05-3.5,0.05-5.25,0c-1.41-0.04-1.89-0.55-1.9-1.89c-0.01-3.01,0-6.02-0.01-9.04
		c0-0.36,0.01-0.73-0.09-1.07c-0.05-0.18-0.35-0.4-0.53-0.4s-0.48,0.22-0.53,0.4c-0.11,0.38-0.11,0.79-0.11,1.19
		c-0.01,2.49,0,4.98-0.01,7.47c-0.01,1.46-0.44,1.89-1.95,1.91c-1.75,0.02-3.5,0.03-5.25,0c-1.31-0.02-1.77-0.47-1.77-1.69
		c-0.01-2.97-0.01-5.94,0-8.92c0.01-1.24,0.44-1.67,1.76-1.69C102.56,9.91,105.2,9.93,107.85,9.93z"/>
	<linearGradient id="SVGID_4_" gradientUnits="userSpaceOnUse" x1="29.2265" y1="16.0356" x2="40.8342" y2="4.4279">
		<stop  offset="0" style="stop-color:#39FF14"/>
		<stop  offset="1" style="stop-color:#BFFF00"/>
	</linearGradient>
	<path class="st3" d="M34.6,15.63c0-1.65,0.02-3.3-0.01-4.94c-0.02-1.29-0.68-1.92-2.05-1.94c-2.05-0.03-4.1,0-6.15-0.01
		C24.92,8.73,24.41,8.33,24.37,7c-0.05-1.69-0.05-3.38,0-5.06c0.03-1.08,0.59-1.68,1.86-1.66c3.16,0.04,6.32,0,9.48,0.02
		c1.33,0.01,1.71,0.38,1.72,1.7c0.02,1.97-0.01,3.94,0.01,5.91c0.01,1.49,0.59,2.02,2.16,2.04c0.81,0.01,1.62-0.02,2.43,0.01
		c1.02,0.04,1.56,0.53,1.55,1.53c-0.01,3.05-0.01,6.11,0,9.16c0,1.04-0.57,1.58-1.64,1.59c-1.88,0.03-3.76,0.02-5.64,0
		c-1.14-0.01-1.72-0.55-1.71-1.66C34.61,18.92,34.6,17.28,34.6,15.63L34.6,15.63z"/>
	<linearGradient id="SVGID_5_" gradientUnits="userSpaceOnUse" x1="60.7496" y1="16.029" x2="72.3625" y2="4.4161">
		<stop  offset="0" style="stop-color:#39FF14"/>
		<stop  offset="1" style="stop-color:#BFFF00"/>
	</linearGradient>
	<path class="st4" d="M66.12,15.64c0-1.61,0.01-3.22,0-4.82c-0.02-1.44-0.65-2.06-2.17-2.07c-2.01-0.02-4.01,0-6.02-0.01
		C56.44,8.72,55.94,8.33,55.9,7c-0.05-1.69-0.05-3.38,0-5.06c0.03-1.08,0.58-1.69,1.85-1.67c3.16,0.04,6.32,0,9.48,0.02
		c1.34,0.01,1.72,0.38,1.73,1.69c0.02,2.01-0.01,4.02,0.01,6.03c0.02,1.35,0.61,1.9,2.02,1.93c0.85,0.02,1.71-0.01,2.56,0.01
		c1.02,0.03,1.57,0.51,1.56,1.52c-0.01,3.05-0.01,6.11,0,9.16c0,1.12-0.64,1.6-1.76,1.61c-1.84,0.01-3.67,0.01-5.51,0
		c-1.14-0.01-1.73-0.54-1.72-1.65C66.13,18.93,66.12,17.28,66.12,15.64L66.12,15.64z"/>
	<linearGradient id="SVGID_6_" gradientUnits="userSpaceOnUse" x1="79.0214" y1="23.5597" x2="93.9965" y2="8.5846">
		<stop  offset="0" style="stop-color:#39FF14"/>
		<stop  offset="1" style="stop-color:#BFFF00"/>
	</linearGradient>
	<path class="st5" d="M86.43,22.23c-2.52,0-5.04,0.01-7.55,0c-1.56-0.01-1.98-0.41-1.99-1.85c-0.01-2.89-0.01-5.79,0-8.68
		c0-1.34,0.42-1.74,1.81-1.76c1.79-0.02,3.59-0.02,5.38,0c1.3,0.02,1.77,0.46,1.79,1.69c0.02,2.53,0.01,5.06,0.01,7.59
		c0,0.32-0.06,0.66,0.04,0.96c0.09,0.26,0.36,0.47,0.55,0.71c0.22-0.25,0.61-0.48,0.63-0.74c0.07-1.16,0.04-2.33,0.04-3.49
		c0-1.69,0.01-3.38,0-5.06c-0.01-1.09,0.56-1.64,1.71-1.65c1.92-0.01,3.84-0.01,5.76,0c0.98,0.01,1.5,0.49,1.5,1.43
		c0,3.13,0,6.27,0,9.4c0,1.2-0.83,1.46-1.88,1.47C91.63,22.24,89.03,22.23,86.43,22.23z"/>
	<linearGradient id="SVGID_7_" gradientUnits="userSpaceOnUse" x1="15.7084" y1="23.5611" x2="30.6871" y2="8.5824">
		<stop  offset="0" style="stop-color:#39FF14"/>
		<stop  offset="1" style="stop-color:#BFFF00"/>
	</linearGradient>
	<path class="st6" d="M28.37,20.21c-0.61-0.12-1.22-0.32-1.83-0.33c-2.68-0.06-2.7-0.05-2.7-2.61c0-1.81-0.01-3.62,0-5.43
		c0.01-1.47,0.44-1.89,1.96-1.9c1.79-0.02,3.59,0,5.38,0c1.11,0,1.65,0.49,1.64,1.54c-0.01,3.05-0.02,6.11,0,9.16
		c0.01,1.07-0.55,1.58-1.62,1.59c-5.34,0.02-10.67,0.02-16.01,0c-1.06,0-1.63-0.53-1.62-1.6c0.02-3.01,0-6.03,0.01-9.04
		c0.01-1.22,0.45-1.63,1.8-1.65c1.79-0.02,3.59-0.02,5.38,0c1.31,0.02,1.78,0.46,1.79,1.68c0.02,2.45,0,4.9,0.01,7.36
		c0.01,1.62,0.49,2.05,2.22,2.06c0.81,0,1.62,0.03,2.43-0.01c0.38-0.02,0.75-0.17,1.13-0.25C28.36,20.58,28.37,20.39,28.37,20.21z"
		/>
	<linearGradient id="SVGID_8_" gradientUnits="userSpaceOnUse" x1="43.9142" y1="38.7668" x2="58.903" y2="23.778">
		<stop  offset="0" style="stop-color:#39FF14"/>
		<stop  offset="1" style="stop-color:#BFFF00"/>
	</linearGradient>
	<path class="st7" d="M61.01,31.35c0,1.45,0.01,2.89,0,4.34c-0.01,1.27-0.41,1.72-1.71,1.73c-5.25,0.02-10.5,0.02-15.75,0
		c-1.31,0-1.76-0.47-1.76-1.7c-0.01-2.97-0.01-5.95,0-8.92c0.01-1.23,0.45-1.65,1.78-1.67c1.79-0.02,3.59-0.02,5.38,0
		c1.36,0.02,1.81,0.46,1.82,1.78c0.02,2.41,0,4.82,0.01,7.23c0.01,1.63,0.48,2.07,2.19,2.08c0.94,0,1.88,0.02,2.82-0.02
		c0.25-0.01,0.48-0.25,0.72-0.38c-0.2-0.23-0.37-0.62-0.6-0.65c-0.75-0.11-1.53-0.11-2.29-0.11c-1.06-0.01-1.57-0.5-1.57-1.49
		c0-2.29,0-4.58,0-6.87c0-1.04,0.6-1.55,1.68-1.56c1.92-0.01,3.84-0.01,5.76,0c1.05,0.01,1.55,0.53,1.54,1.52
		C61,28.22,61.01,29.78,61.01,31.35z"/>
	<linearGradient id="SVGID_9_" gradientUnits="userSpaceOnUse" x1="64.9211" y1="38.7564" x2="79.9033" y2="23.7743">
		<stop  offset="0" style="stop-color:#39FF14"/>
		<stop  offset="1" style="stop-color:#BFFF00"/>
	</linearGradient>
	<path class="st8" d="M72.51,25.13c2.52,0,5.04-0.01,7.56,0c1.58,0.01,1.94,0.37,1.96,1.87c0.01,0.6,0.01,1.21,0,1.81
		c-0.01,1.56-0.35,1.87-2.06,1.87c-2.01,0.01-4.01-0.01-6.02,0.01c-1.58,0.01-2.14,0.54-2.16,2.04c-0.01,0.84-0.04,1.69,0.04,2.53
		c0.03,0.29,0.36,0.55,0.55,0.83c0.22-0.29,0.59-0.55,0.64-0.87c0.1-0.63,0.01-1.28,0.05-1.92c0.05-0.89,0.53-1.41,1.54-1.41
		c1.96,0,3.93,0,5.89,0c1.06,0,1.55,0.52,1.54,1.51c-0.01,0.76,0.01,1.53,0,2.29C82,37,81.6,37.41,80.19,37.42
		c-2.9,0.02-5.81,0.01-8.71,0.01c-2.26,0-4.53,0.01-6.79-0.01c-1.46-0.01-1.9-0.43-1.9-1.82c-0.01-2.89-0.01-5.79,0-8.68
		c0-1.39,0.41-1.79,1.9-1.8C67.3,25.12,69.9,25.13,72.51,25.13z M71.49,27.94c0.34,0.56,0.6,0.99,0.87,1.43
		c0.23-0.49,0.63-0.97,0.63-1.46c0-0.49-0.38-0.99-0.6-1.49C72.12,26.9,71.84,27.37,71.49,27.94z"/>
	<linearGradient id="SVGID_10_" gradientUnits="userSpaceOnUse" x1="106.6293" y1="38.767" x2="121.6006" y2="23.7956">
		<stop  offset="0" style="stop-color:#39FF14"/>
		<stop  offset="1" style="stop-color:#BFFF00"/>
	</linearGradient>
	<path class="st9" d="M114.17,37.43c-2.56,0-5.13,0.01-7.69,0c-1.58-0.01-1.94-0.37-1.95-1.87c0-0.36,0.02-0.72,0-1.09
		c-0.05-1.11,0.49-1.64,1.68-1.63c1.84,0.02,3.67-0.01,5.51,0.01c1.28,0.02,1.75,0.48,1.81,1.69c0.02,0.32-0.05,0.66,0.05,0.96
		c0.07,0.22,0.3,0.46,0.53,0.56c0.1,0.04,0.53-0.26,0.52-0.4c-0.01-1.06,0.08-2.17-0.24-3.17c-0.13-0.41-1.15-0.77-1.79-0.8
		c-2.09-0.1-4.18-0.03-6.28-0.04c-1.48-0.01-1.78-0.3-1.79-1.72c-0.01-1.13,0-2.25,0-3.38c0-0.95,0.54-1.41,1.51-1.41
		c5.38-0.01,10.76-0.01,16.14,0c1.03,0,1.53,0.55,1.6,1.51c0.18,2.4-0.23,2.82-2.81,2.82c-1.41,0-2.82,0.01-4.23-0.01
		c-1.5-0.02-1.87-0.39-1.95-1.77c-0.02-0.31-0.04-0.65-0.18-0.93c-0.08-0.17-0.4-0.3-0.61-0.31c-0.14,0-0.4,0.25-0.4,0.4
		c-0.01,0.96-0.17,1.98,0.16,2.84c0.18,0.47,1.2,0.87,1.87,0.91c2.09,0.12,4.18,0.03,6.28,0.05c1.51,0.01,1.86,0.37,1.88,1.81
		c0.01,1.05,0.01,2.09,0,3.14c-0.02,1.36-0.48,1.82-1.92,1.83C119.3,37.45,116.74,37.43,114.17,37.43z"/>
	<linearGradient id="SVGID_11_" gradientUnits="userSpaceOnUse" x1="46.4506" y1="22.5261" x2="61.4484" y2="7.5283">
		<stop  offset="0" style="stop-color:#39FF14"/>
		<stop  offset="1" style="stop-color:#BFFF00"/>
	</linearGradient>
	<path class="st10" d="M55.18,9.93c2.47,0,4.95-0.01,7.42,0c1.62,0,1.98,0.33,1.99,1.81c0.01,1.57-0.04,3.13,0.02,4.7
		c0.04,1.09-0.56,1.61-1.57,1.65c-1.92,0.07-3.84,0.07-5.76,0c-1.07-0.04-1.71-0.61-1.67-1.73c0.04-1.32,0.05-2.65-0.02-3.97
		C55.57,12,55.21,11.62,55,11.24c-0.22,0.38-0.61,0.75-0.62,1.13c-0.06,2.61-0.03,5.22-0.03,7.83c0,1.66-0.41,2.03-2.21,2.04
		c-1.66,0.01-3.33,0.02-4.99-0.01c-1.32-0.02-1.78-0.46-1.78-1.68c-0.01-2.97-0.01-5.94,0-8.92c0.01-1.29,0.45-1.69,1.88-1.7
		C49.89,9.92,52.54,9.93,55.18,9.93z"/>
	<linearGradient id="SVGID_12_" gradientUnits="userSpaceOnUse" x1="1.0999" y1="37.7218" x2="16.0959" y2="22.7258">
		<stop  offset="0" style="stop-color:#39FF14"/>
		<stop  offset="1" style="stop-color:#BFFF00"/>
	</linearGradient>
	<path class="st11" d="M9.7,25.13c2.52,0,5.04,0,7.55,0c1.62,0,1.98,0.33,1.99,1.81c0.01,1.57-0.04,3.14,0.02,4.7
		c0.04,1.09-0.56,1.61-1.57,1.65c-1.92,0.07-3.84,0.08-5.76,0.01c-1.07-0.04-1.7-0.61-1.67-1.73c0.04-1.36,0.05-2.73-0.02-4.1
		c-0.02-0.35-0.38-0.69-0.59-1.04c-0.21,0.34-0.61,0.67-0.62,1.01C8.98,30.09,9,32.75,8.99,35.4c-0.01,1.66-0.41,2.03-2.21,2.03
		c-1.66,0.01-3.33,0.02-4.99-0.01c-1.31-0.02-1.78-0.46-1.78-1.68C0,32.77,0,29.8,0.01,26.83c0.01-1.29,0.45-1.69,1.88-1.7
		C4.49,25.12,7.09,25.13,9.7,25.13z"/>
	<linearGradient id="SVGID_13_" gradientUnits="userSpaceOnUse" x1="84.8842" y1="37.7303" x2="99.8868" y2="22.7278">
		<stop  offset="0" style="stop-color:#39FF14"/>
		<stop  offset="1" style="stop-color:#BFFF00"/>
	</linearGradient>
	<path class="st12" d="M93.47,25.13c2.56,0,5.12-0.01,7.68,0c1.51,0.01,1.87,0.36,1.88,1.8c0.01,1.57-0.04,3.13,0.02,4.7
		c0.04,1.08-0.54,1.62-1.56,1.66c-1.92,0.07-3.84,0.08-5.76,0.01c-1.06-0.04-1.72-0.59-1.69-1.71c0.04-1.12,0.07-2.25-0.02-3.37
		c-0.05-0.6-0.37-1.18-0.57-1.78c-1.07,0.34-0.63,1.2-0.65,1.84c-0.05,2.37-0.02,4.74-0.02,7.11c0,1.67-0.4,2.04-2.19,2.05
		c-1.62,0.01-3.24,0.02-4.86,0c-1.49-0.02-1.93-0.42-1.93-1.79c-0.01-2.93-0.01-5.86,0-8.8c0.01-1.3,0.44-1.7,1.86-1.71
		C88.27,25.11,90.87,25.13,93.47,25.13z"/>
</g>
</svg>
