<?xml version="1.0" encoding="utf-8"?>
<!-- Generator: Adobe Illustrator 23.0.0, SVG Export Plug-In . SVG Version: 6.00 Build 0)  -->
<svg version="1.1" id="Layer_1" xmlns="http://www.w3.org/2000/svg" xmlns:xlink="http://www.w3.org/1999/xlink" x="0px" y="0px"
	 viewBox="0 0 139 39" style="enable-background:new 0 0 139 39;" xml:space="preserve">
<style type="text/css">
	.st0{fill:url(#SVGID_1_);stroke:#000000;stroke-width:0.5;stroke-miterlimit:10;}
	.st1{fill:url(#SVGID_2_);stroke:#000000;stroke-width:0.5;stroke-miterlimit:10;}
	.st2{fill:url(#SVGID_3_);stroke:#000000;stroke-width:0.5;stroke-miterlimit:10;}
	.st3{fill:url(#SVGID_4_);stroke:#000000;stroke-width:0.5;stroke-miterlimit:10;}
	.st4{fill:url(#SVGID_5_);stroke:#000000;stroke-width:0.5;stroke-miterlimit:10;}
	.st5{fill:url(#SVGID_6_);stroke:#000000;stroke-width:0.5;stroke-miterlimit:10;}
	.st6{fill:url(#SVGID_7_);stroke:#000000;stroke-width:0.5;stroke-miterlimit:10;}
	.st7{fill:url(#SVGID_8_);stroke:#000000;stroke-width:0.5;stroke-miterlimit:10;}
	.st8{fill:url(#SVGID_9_);stroke:#000000;stroke-width:0.5;stroke-miterlimit:10;}
	.st9{fill:url(#SVGID_10_);stroke:#000000;stroke-width:0.5;stroke-miterlimit:10;}
	.st10{fill:url(#SVGID_11_);stroke:#000000;stroke-width:0.5;stroke-miterlimit:10;}
	.st11{fill:url(#SVGID_12_);stroke:#000000;stroke-width:0.5;stroke-miterlimit:10;}
	.st12{fill:url(#SVGID_13_);stroke:#000000;stroke-width:0.5;stroke-miterlimit:10;}
</style>
<g>
	
		<linearGradient id="SVGID_1_" gradientUnits="userSpaceOnUse" x1="29.1879" y1="0.629" x2="31.7824" y2="15.3432" gradientTransform="matrix(1 0 0 -1 0 39.2756)">
		<stop  offset="0" style="stop-color:#3754FB"/>
		<stop  offset="1" style="stop-color:#FC01FF"/>
	</linearGradient>
	<path class="st0" d="M32.2,39c-1-0.6-1.2-1.5-1.2-2.6c0.1-2.8,0-5.7,0-8.6c0-0.3,0-0.7-0.1-1c-0.1-0.2-0.4-0.5-0.5-0.4
		c-0.2,0-0.5,0.3-0.6,0.5c-0.1,0.3-0.1,0.7-0.1,1.1c0,2.5,0,5.1,0,7.6c0,1.4-0.5,1.8-1.9,1.8c-1.8,0-3.5,0-5.3,0
		c-1.4,0-1.8-0.5-1.8-1.8c0-2.9,0-5.9,0-8.8c0-1.3,0.4-1.7,1.9-1.7c5.2,0,10.3,0,15.5,0c1.5,0,1.9,0.4,1.9,1.8c0,3.3,0,6.5,0,9.8
		c0,1-0.3,1.8-1.2,2.3C36.6,39,34.4,39,32.2,39z"/>
	
		<linearGradient id="SVGID_2_" gradientUnits="userSpaceOnUse" x1="126.9101" y1="7.3532" x2="130.6659" y2="28.6536" gradientTransform="matrix(1 0 0 -1 0 39.2756)">
		<stop  offset="0" style="stop-color:#3754FB"/>
		<stop  offset="1" style="stop-color:#FC01FF"/>
	</linearGradient>
	<path class="st1" d="M138.5,30.8c-0.7,1-1.7,1.1-2.9,1.1c-2.8-0.1-5.6,0-8.5,0c-1.5,0-1.9-0.4-1.9-1.8c0-1.9,0-3.8,0-5.7
		c0-1.7-0.5-2.2-2.3-2.2c-0.8,0-1.5,0-2.3,0c-1,0-1.6-0.5-1.6-1.5c0-3.1,0-6.2,0-9.3c0-1,0.6-1.5,1.6-1.5c1.9,0,3.8,0,5.8,0
		c1.2,0,1.6,0.7,1.6,1.7c0,3.1,0,6.3,0,9.4c0,1.8,0.6,2.3,2.5,2.4c1.8,0,3.5,0.1,5.3,0c1.1,0,2,0.2,2.6,1.1
		C138.5,26.6,138.5,28.7,138.5,30.8z"/>
	
		<linearGradient id="SVGID_3_" gradientUnits="userSpaceOnUse" x1="106.5825" y1="15.8148" x2="109.1779" y2="30.5338" gradientTransform="matrix(1 0 0 -1 0 39.2756)">
		<stop  offset="0" style="stop-color:#3754FB"/>
		<stop  offset="1" style="stop-color:#FC01FF"/>
	</linearGradient>
	<path class="st2" d="M107.8,9.9c2.5,0,5,0,7.6,0c1.6,0,2,0.4,2,1.8c0,3.3,0,6.7,0,10c0,1.4-0.4,1.9-1.8,1.9c-1.8,0-3.5,0-5.3,0
		c-1.4,0-1.9-0.5-1.9-1.9c0-3,0-6,0-9c0-0.4,0-0.7-0.1-1.1c-0.1-0.2-0.3-0.4-0.5-0.4s-0.5,0.2-0.5,0.4c-0.1,0.4-0.1,0.8-0.1,1.2
		c0,2.5,0,5,0,7.5c0,1.5-0.4,1.9-1.9,1.9c-1.8,0-3.5,0-5.3,0c-1.3,0-1.8-0.5-1.8-1.7c0-3,0-5.9,0-8.9c0-1.2,0.4-1.7,1.8-1.7
		C102.6,9.9,105.2,9.9,107.8,9.9z"/>
	
		<linearGradient id="SVGID_4_" gradientUnits="userSpaceOnUse" x1="32.1696" y1="17.7205" x2="35.9228" y2="39.0056" gradientTransform="matrix(1 0 0 -1 0 39.2756)">
		<stop  offset="0" style="stop-color:#3754FB"/>
		<stop  offset="1" style="stop-color:#FC01FF"/>
	</linearGradient>
	<path class="st3" d="M34.6,15.6c0-1.6,0-3.3,0-4.9c0-1.3-0.7-1.9-2-1.9c-2,0-4.1,0-6.1,0c-1.5,0-2-0.4-2-1.7c0-1.7,0-3.4,0-5.1
		c0-1.1,0.6-1.7,1.9-1.7c3.2,0,6.3,0,9.5,0c1.3,0,1.7,0.4,1.7,1.7c0,2,0,3.9,0,5.9c0,1.5,0.6,2,2.2,2c0.8,0,1.6,0,2.4,0
		c1,0,1.6,0.5,1.5,1.5c0,3.1,0,6.1,0,9.2c0,1-0.6,1.6-1.6,1.6c-1.9,0-3.8,0-5.6,0c-1.1,0-1.7-0.5-1.7-1.7
		C34.6,18.9,34.6,17.3,34.6,15.6L34.6,15.6z"/>
	
		<linearGradient id="SVGID_5_" gradientUnits="userSpaceOnUse" x1="63.6982" y1="17.7218" x2="67.4528" y2="39.0148" gradientTransform="matrix(1 0 0 -1 0 39.2756)">
		<stop  offset="0" style="stop-color:#3754FB"/>
		<stop  offset="1" style="stop-color:#FC01FF"/>
	</linearGradient>
	<path class="st4" d="M66.1,15.6c0-1.6,0-3.2,0-4.8c0-1.4-0.7-2.1-2.2-2.1c-2,0-4,0-6,0c-1.5,0-2-0.4-2-1.7c0-1.7,0-3.4,0-5.1
		c0-1.1,0.6-1.7,1.8-1.7c3.2,0,6.3,0,9.5,0c1.3,0,1.7,0.4,1.7,1.7c0,2,0,4,0,6c0,1.4,0.6,1.9,2,1.9c0.8,0,1.7,0,2.6,0
		c1,0,1.6,0.5,1.6,1.5c0,3.1,0,6.1,0,9.2c0,1.1-0.6,1.6-1.8,1.6c-1.8,0-3.7,0-5.5,0c-1.1,0-1.7-0.5-1.7-1.6
		C66.1,18.9,66.1,17.3,66.1,15.6L66.1,15.6z"/>
	
		<linearGradient id="SVGID_6_" gradientUnits="userSpaceOnUse" x1="85.2153" y1="15.8445" x2="87.8101" y2="30.5607" gradientTransform="matrix(1 0 0 -1 0 39.2756)">
		<stop  offset="0" style="stop-color:#3754FB"/>
		<stop  offset="1" style="stop-color:#FC01FF"/>
	</linearGradient>
	<path class="st5" d="M86.4,22.2c-2.5,0-5,0-7.6,0c-1.6,0-2-0.4-2-1.9c0-2.9,0-5.8,0-8.7c0-1.3,0.4-1.7,1.8-1.8c1.8,0,3.6,0,5.4,0
		c1.3,0,1.8,0.5,1.8,1.7c0,2.5,0,5.1,0,7.6c0,0.3-0.1,0.7,0,1c0.1,0.3,0.4,0.5,0.6,0.7c0.2-0.3,0.6-0.5,0.6-0.7c0.1-1.2,0-2.3,0-3.5
		c0-1.7,0-3.4,0-5.1c0-1.1,0.6-1.6,1.7-1.6c1.9,0,3.8,0,5.8,0c1,0,1.5,0.5,1.5,1.4c0,3.1,0,6.3,0,9.4c0,1.2-0.8,1.5-1.9,1.5
		C91.6,22.2,89,22.2,86.4,22.2z"/>
	
		<linearGradient id="SVGID_7_" gradientUnits="userSpaceOnUse" x1="21.9014" y1="15.8198" x2="24.5008" y2="30.5617" gradientTransform="matrix(1 0 0 -1 0 39.2756)">
		<stop  offset="0" style="stop-color:#3754FB"/>
		<stop  offset="1" style="stop-color:#FC01FF"/>
	</linearGradient>
	<path class="st6" d="M28.4,20.2c-0.6-0.1-1.2-0.3-1.8-0.3c-2.7-0.1-2.7,0-2.7-2.6c0-1.8,0-3.6,0-5.4c0-1.5,0.4-1.9,2-1.9
		c1.8,0,3.6,0,5.4,0c1.1,0,1.7,0.5,1.6,1.5c0,3.1,0,6.1,0,9.2c0,1.1-0.5,1.6-1.6,1.6c-5.3,0-10.7,0-16,0c-1.1,0-1.6-0.5-1.6-1.6
		c0-3,0-6,0-9c0-1.2,0.4-1.6,1.8-1.6c1.8,0,3.6,0,5.4,0c1.3,0,1.8,0.5,1.8,1.7c0,2.4,0,4.9,0,7.4c0,1.6,0.5,2,2.2,2.1
		c0.8,0,1.6,0,2.4,0c0.4,0,0.8-0.2,1.1-0.3C28.4,20.6,28.4,20.4,28.4,20.2z"/>
	
		<linearGradient id="SVGID_8_" gradientUnits="userSpaceOnUse" x1="50.1" y1="0.6376" x2="52.6979" y2="15.3713" gradientTransform="matrix(1 0 0 -1 0 39.2756)">
		<stop  offset="0" style="stop-color:#3754FB"/>
		<stop  offset="1" style="stop-color:#FC01FF"/>
	</linearGradient>
	<path class="st7" d="M61,31.4c0,1.4,0,2.9,0,4.3c0,1.3-0.4,1.7-1.7,1.7c-5.3,0-10.5,0-15.8,0c-1.3,0-1.8-0.5-1.8-1.7
		c0-3,0-5.9,0-8.9c0-1.2,0.5-1.6,1.8-1.7c1.8,0,3.6,0,5.4,0c1.4,0,1.8,0.5,1.8,1.8c0,2.4,0,4.8,0,7.2c0,1.6,0.5,2.1,2.2,2.1
		c0.9,0,1.9,0,2.8,0c0.3,0,0.5-0.3,0.7-0.4c-0.2-0.2-0.4-0.6-0.6-0.7c-0.8-0.1-1.5-0.1-2.3-0.1c-1.1,0-1.6-0.5-1.6-1.5
		c0-2.3,0-4.6,0-6.9c0-1,0.6-1.5,1.7-1.6c1.9,0,3.8,0,5.8,0c1,0,1.5,0.5,1.5,1.5C61,28.2,61,29.8,61,31.4z"/>
	
		<linearGradient id="SVGID_9_" gradientUnits="userSpaceOnUse" x1="71.1126" y1="0.649" x2="73.7059" y2="15.3563" gradientTransform="matrix(1 0 0 -1 0 39.2756)">
		<stop  offset="0" style="stop-color:#3754FB"/>
		<stop  offset="1" style="stop-color:#FC01FF"/>
	</linearGradient>
	<path class="st8" d="M72.5,25.1c2.5,0,5,0,7.6,0c1.6,0,1.9,0.4,2,1.9c0,0.6,0,1.2,0,1.8c0,1.6-0.3,1.9-2.1,1.9c-2,0-4,0-6,0
		c-1.6,0-2.1,0.5-2.2,2c0,0.8,0,1.7,0,2.5c0,0.3,0.4,0.5,0.6,0.8c0.2-0.3,0.6-0.5,0.6-0.9c0.1-0.6,0-1.3,0.1-1.9
		c0.1-0.9,0.5-1.4,1.5-1.4c2,0,3.9,0,5.9,0c1.1,0,1.6,0.5,1.5,1.5c0,0.8,0,1.5,0,2.3c0,1.3-0.4,1.7-1.9,1.7c-2.9,0-5.8,0-8.7,0
		c-2.3,0-4.5,0-6.8,0c-1.5,0-1.9-0.4-1.9-1.8c0-2.9,0-5.8,0-8.7c0-1.4,0.4-1.8,1.9-1.8C67.3,25.1,69.9,25.1,72.5,25.1z M71.5,27.9
		c0.3,0.6,0.6,1,0.9,1.4c0.2-0.5,0.6-1,0.6-1.5c0-0.5-0.4-1-0.6-1.5C72.1,26.9,71.8,27.4,71.5,27.9z"/>
	
		<linearGradient id="SVGID_10_" gradientUnits="userSpaceOnUse" x1="112.8382" y1="0.6359" x2="115.4351" y2="15.3638" gradientTransform="matrix(1 0 0 -1 0 39.2756)">
		<stop  offset="0" style="stop-color:#3754FB"/>
		<stop  offset="1" style="stop-color:#FC01FF"/>
	</linearGradient>
	<path class="st9" d="M114.2,37.4c-2.6,0-5.1,0-7.7,0c-1.6,0-1.9-0.4-1.9-1.9c0-0.4,0-0.7,0-1.1c-0.1-1.1,0.5-1.6,1.7-1.6
		c1.8,0,3.7,0,5.5,0c1.3,0,1.8,0.5,1.8,1.7c0,0.3-0.1,0.7,0.1,1c0.1,0.2,0.3,0.5,0.5,0.6c0.1,0,0.5-0.3,0.5-0.4
		c0-1.1,0.1-2.2-0.2-3.2c-0.1-0.4-1.2-0.8-1.8-0.8c-2.1-0.1-4.2,0-6.3,0c-1.5,0-1.8-0.3-1.8-1.7c0-1.1,0-2.3,0-3.4
		c0-1,0.5-1.4,1.5-1.4c5.4,0,10.8,0,16.1,0c1,0,1.5,0.5,1.6,1.5c0.2,2.4-0.2,2.8-2.8,2.8c-1.4,0-2.8,0-4.2,0c-1.5,0-1.9-0.4-1.9-1.8
		c0-0.3,0-0.6-0.2-0.9c-0.1-0.2-0.4-0.3-0.6-0.3c-0.1,0-0.4,0.3-0.4,0.4c0,1-0.2,2,0.2,2.8c0.2,0.5,1.2,0.9,1.9,0.9
		c2.1,0.1,4.2,0,6.3,0c1.5,0,1.9,0.4,1.9,1.8c0,1,0,2.1,0,3.1c0,1.4-0.5,1.8-1.9,1.8C119.3,37.5,116.7,37.4,114.2,37.4z"/>
	
		<linearGradient id="SVGID_11_" gradientUnits="userSpaceOnUse" x1="53.3413" y1="15.8963" x2="55.9378" y2="30.6218" gradientTransform="matrix(1 0 0 -1 0 39.2756)">
		<stop  offset="0" style="stop-color:#3754FB"/>
		<stop  offset="1" style="stop-color:#FC01FF"/>
	</linearGradient>
	<path class="st10" d="M55.2,9.9c2.5,0,5,0,7.4,0c1.6,0,2,0.3,2,1.8c0,1.6,0,3.1,0,4.7c0,1.1-0.6,1.6-1.6,1.6
		c-1.9,0.1-3.8,0.1-5.8,0c-1.1,0-1.7-0.6-1.7-1.7c0-1.3,0-2.6,0-4c0-0.4-0.4-0.8-0.6-1.1c-0.2,0.4-0.6,0.8-0.6,1.1
		c-0.1,2.6,0,5.2,0,7.8c0,1.7-0.4,2-2.2,2c-1.7,0-3.3,0-5,0c-1.3,0-1.8-0.5-1.8-1.7c0-3,0-5.9,0-8.9c0-1.3,0.5-1.7,1.9-1.7
		C49.9,9.9,52.5,9.9,55.2,9.9z"/>
	
		<linearGradient id="SVGID_12_" gradientUnits="userSpaceOnUse" x1="7.9879" y1="0.7057" x2="10.5829" y2="15.4226" gradientTransform="matrix(1 0 0 -1 0 39.2756)">
		<stop  offset="0" style="stop-color:#3754FB"/>
		<stop  offset="1" style="stop-color:#FC01FF"/>
	</linearGradient>
	<path class="st11" d="M9.7,25.1c2.5,0,5,0,7.6,0c1.6,0,2,0.3,2,1.8c0,1.6,0,3.1,0,4.7c0,1.1-0.6,1.6-1.6,1.6
		c-1.9,0.1-3.8,0.1-5.8,0c-1.1,0-1.7-0.6-1.7-1.7c0-1.4,0.1-2.7,0-4.1c0-0.4-0.4-0.7-0.6-1c-0.2,0.3-0.6,0.7-0.6,1
		c-0.1,2.6,0,5.3,0,8c0,1.7-0.4,2-2.2,2c-1.7,0-3.3,0-5,0C0.5,37.4,0,37,0,35.7c0-3,0-5.9,0-8.9c0-1.3,0.4-1.7,1.9-1.7
		C4.5,25.1,7.1,25.1,9.7,25.1z"/>
	
		<linearGradient id="SVGID_13_" gradientUnits="userSpaceOnUse" x1="91.7766" y1="0.6954" x2="94.3738" y2="15.4244" gradientTransform="matrix(1 0 0 -1 0 39.2756)">
		<stop  offset="0" style="stop-color:#3754FB"/>
		<stop  offset="1" style="stop-color:#FC01FF"/>
	</linearGradient>
	<path class="st12" d="M93.5,25.1c2.6,0,5.1,0,7.7,0c1.5,0,1.9,0.4,1.9,1.8c0,1.6,0,3.1,0,4.7c0,1.1-0.5,1.6-1.6,1.7
		c-1.9,0.1-3.8,0.1-5.8,0c-1.1,0-1.7-0.6-1.7-1.7c0-1.1,0.1-2.3,0-3.4c-0.1-0.6-0.4-1.2-0.6-1.8c-1.1,0.3-0.6,1.2-0.7,1.8
		c-0.1,2.4,0,4.7,0,7.1c0,1.7-0.4,2-2.2,2c-1.6,0-3.2,0-4.9,0c-1.5,0-1.9-0.4-1.9-1.8c0-2.9,0-5.9,0-8.8c0-1.3,0.4-1.7,1.9-1.7
		C88.3,25.1,90.9,25.1,93.5,25.1z"/>
</g>
</svg>
