<?xml version="1.0" encoding="utf-8"?>
<!-- Generator: Adobe Illustrator 23.0.0, SVG Export Plug-In . SVG Version: 6.00 Build 0)  -->
<svg version="1.1" id="Layer_1" xmlns="http://www.w3.org/2000/svg" xmlns:xlink="http://www.w3.org/1999/xlink" x="0px" y="0px"
	 viewBox="0 0 80 79" style="enable-background:new 0 0 80 79;" xml:space="preserve">
<style type="text/css">
	.st0{fill:url(#SVGID_1_);}
</style>
<g>
	<linearGradient id="SVGID_1_" gradientUnits="userSpaceOnUse" x1="0" y1="39.4683" x2="80.1388" y2="39.4683">
		<stop  offset="0" style="stop-color:#9ADC01"/>
		<stop  offset="1" style="stop-color:#62FF0E"/>
	</linearGradient>
	<path class="st0" d="M18.1,45c2-2.8,3.5-5.6,5.5-8.2c3.1-4.2,4.5-9,5-14.1c0.5-4.8-2.8-7.2-7.8-5.5c-4.5,1.5-8.4,4.1-11.1,7.8
		C6.6,29.4,4,34.2,1.1,38.9c-0.2,0.3-0.3,0.7-0.5,1c-0.2-0.1-0.4-0.1-0.7-0.2c0.5-2.2,0.7-4.5,1.4-6.6c2.7-7.9,6.4-15.2,12.8-20.9
		C22.2,5,31.4,0,42.6,0c1.2,0,2.3,1,3.5,1.5c0.1,0,0.1,0.1,0.2,0.2c4.2,3.1,4.5,7.7,5.1,12.3c1.1,8,3.9,15.5,8,22.5
		c1.2,2,2.5,4.3,5.4,3.9c2.8-0.4,3.4-2.9,4-5c2.4-8.3,0.7-16.2-2.5-23.9c-0.6-1.5-1.4-3-2.3-4.8C77.5,17.7,86.4,45.9,74.8,66
		c-6.5-1.6-12.8-3.5-19.3-4.7c-7.5-1.4-15-1.9-22.5,0.5c-1,0.3-2.1,0.8-2.9,1.5c-2.4,1.8-2.6,4.4-0.5,6.6c4,4.1,9.3,5.5,14.6,6.5
		c3.8,0.7,7.7,0.9,11.6,1.3c0,0.2,0,0.3,0,0.5c-3.8,0.3-7.5,1-11.3,0.8c-5.5-0.2-11-0.5-16.4-1.7C16,74.6,6.9,67.4,0.3,57
		C6.2,53.6,15.1,50.9,18.1,45 M57.3,50.6c-0.9-1.2-1.5-2-2-2.8c-3.1-4.9-6.2-9.9-9.3-14.8c-1.2-1.9-2.2-3.8-3.5-5.5
		c-1.8-2.4-2.3-2.3-3.8,0.5c-3.4,6.2-6.7,12.5-10,18.8c-0.5,0.9-0.6,2-1,3c1.1,0.2,2.2,0.7,3.3,0.7c6.5,0,12.9-0.2,19.4-0.3
		C52.6,50.1,54.7,50.4,57.3,50.6z"/>
</g>
</svg>
