<?xml version="1.0" encoding="utf-8"?>
<!-- Generator: Adobe Illustrator 28.0.0, SVG Export Plug-In . SVG Version: 6.00 Build 0)  -->
<svg version="1.1" id="Layer_1" xmlns="http://www.w3.org/2000/svg" xmlns:xlink="http://www.w3.org/1999/xlink" x="0px" y="0px"
	 viewBox="0 0 198 178.5" style="enable-background:new 0 0 198 178.5;" xml:space="preserve">
<style type="text/css">
	.st0{fill:#FBD339;}
	.st1{fill:#FFFFFF;stroke:#231F20;stroke-miterlimit:10;}
</style>
<g>
	<path class="st0" d="M17.3,121.2c-7.6,0.1-13.8-5.9-13.7-13.2c0.1-6.9,6.9-13.5,14-13.4c7,0.1,13,6.2,13,13.3
		C30.7,115.6,25.2,121.1,17.3,121.2z"/>
	<path class="st1" d="M97.9,111c1.9-5.3,3.6-9,4.5-12.8c1-4,3.8-3.4,6.6-3.4c4,0,2.9,2.9,3,5.1c0.1,5.7,0,11.4,0,17.1
		c0,1.7,0.2,3.4-2.3,3.5c-2.8,0.2-2.9-1.5-3-3.6c-0.1-3.7,0.7-7.5-0.8-11.8c-3.3,3.7-3.6,8.3-5.3,12.1c-0.6,1.4-0.6,3.4-3,3.2
		c-2-0.2-2.6-1.6-3.1-3.3c-1.4-4.4-3-8.8-5.9-13.2c0,4.5,0,8.9,0,13.4c0,1.8-0.1,3.3-2.6,3.2c-2.2-0.1-2.7-1.3-2.7-3.3
		c0.1-5.9,0-11.9,0-17.8c0-2-0.6-4.7,2.8-4.6c2.6,0.1,5.7-1.3,6.9,3C94.2,101.8,96,105.7,97.9,111z"/>
	<path class="st1" d="M137.6,104.4c-1.5,4.4-3.1,8.7-4.6,13.1c-0.5,1.4-0.9,2.7-2.7,2.8c-2.2,0.2-2.6-1.3-3.2-3
		c-1.4-4.2-3-8.3-6-12.4c0,3.5,0.1,7.1,0,10.6c-0.1,1.9,1,4.6-2.5,4.7c-3.5,0.2-2.9-2.4-2.9-4.4c-0.1-5.4-0.1-10.9,0-16.3
		c0-1.8-1.1-4.7,2.4-4.8c2.9-0.1,6.3-1.2,7.5,3.2c1,3.6,2.4,7,4,11.4c3.1-3.6,4.1-7.1,4.9-10.5c1-4,3.5-4.2,6.9-4.2
		c4.6,0.1,3,3.4,3.1,5.6c0.2,5.4,0.1,10.9,0.1,16.3c0,2,0,3.9-2.9,3.8c-2.9-0.1-2.6-2.1-2.6-4c0-4,0-8,0-12
		C138.6,104.4,138.1,104.4,137.6,104.4z"/>
	<path class="st1" d="M36.9,74.7c0,4-0.1,7.9,0,11.9c0,2.2-0.5,3.7-3.1,3.5c-2.4-0.1-2.3-1.9-2.3-3.5c0-5.9-0.1-11.8,0-17.7
		c0-1.6-1.1-4.1,2-4.4c2.3-0.2,4.5-0.5,6,2.3c2.4,4.5,5.3,8.7,9.4,12.9c0-4.1,0-8.2,0-12.2c0-1.9,0.3-3.1,2.7-3.1
		c2.2,0,2.9,0.8,2.9,2.9c-0.1,6.6,0,13.3,0,19.9c0,1.4,0,2.9-2,3c-2.1,0-4.2,0.4-5.5-2c-2.7-4.6-5.6-9.1-8.4-13.7
		C37.9,74.5,37.4,74.6,36.9,74.7z"/>
	<path class="st1" d="M150.1,74.6c0,4.2,0,8.3,0,12.5c0,2-0.5,3.1-2.8,3.1c-2.3,0-2.8-1.1-2.8-3.1c0-5.9-0.1-11.8,0.1-17.8
		c0.1-1.7-1.6-4.6,2.1-4.9c2.4-0.2,4.6-0.3,6.1,2.4c2.4,4.3,5.1,8.4,9.3,12.7c0-3.8,0-7.5,0-11.3c0-1.9-0.2-3.8,2.8-3.8
		c3.1,0,2.6,2,2.7,3.8c0,5.7,0.1,11.4,0,17c0,1.7,1,4.1-1.7,4.7c-2.3,0.5-4.5,0.3-6-2.4c-2.6-4.6-5.5-8.9-8.3-13.4
		C150.9,74.3,150.5,74.5,150.1,74.6z"/>
	<path class="st1" d="M191.4,119.7c-8,3.2-9.7-5.6-14.8-7.8c-0.3,0.3-0.6,0.6-0.7,0.9c-1.2,2.4,2.4,7.2-2.6,7.4
		c-5.8,0.2-2.6-4.8-3.1-7.5c-0.5-2.5-0.4-5.2,0-7.8c0.4-3.3-2-8.7,1.6-9.6c5.2-1.3,11.4-1.9,16.7,1.2c4.3,2.5,4.8,9.9,0.5,12
		c-5.9,3-2.5,4.7-0.2,7.2C189.6,116.8,191.3,117.6,191.4,119.7z M181.4,106.5c1-0.3,4.4,0.3,4.5-3.4c0.1-4.1-3.4-3.5-6.1-3.7
		c-2.9-0.2-4.2,0.6-4.1,3.8C175.6,106.7,177.5,107,181.4,106.5z"/>
	<path class="st1" d="M148.3,107.7c0-14.3,0.7-14.9,15.7-13c1.7,0.2,3.3,0.1,3.2,2.6c-0.1,2.5-1.8,2.3-3.5,2.3c-2.1,0-4.3,0-6.4,0
		c-1.8,0-3.3,0.2-3.3,2.6c0,2,0.9,2.6,2.8,3.2c2.9,0.9,8.5-2.9,8.4,2.5c0,3.9-5.3,1.4-8.2,1.9c-1.8,0.4-3.1,0.3-3.2,2.7
		c-0.1,2.4,0.8,3.5,3.2,3.3c1.9-0.1,3.8-0.2,5.7,0c1.5,0.2,4.1-1.3,4.3,2c0.2,3-2,2.6-3.9,2.6c-3.8,0-7.6-0.1-11.4,0.1
		c-2.7,0.1-3.9-0.7-3.7-3.6C148.4,113.8,148.3,110.7,148.3,107.7z"/>
	<path class="st1" d="M45.8,94.1c0.9,0.2,2.7,0.3,4.1,0.9c2.6,1.1,6.1,3,4.8,5.8c-1.2,2.6-4.3,1-6.4-1.1c-1.9-1.9-4.4-1.7-6.5-0.3
		c-0.7,0.4-1.3,1.6-1.2,2.4c0.4,2.9,3,2.5,4.9,3c2.1,0.5,4.3,0.7,6.2,1.6c4.5,2,5.6,7.6,2.4,11.3c-3.9,4.6-14,4.6-18.1,0.1
		c-1.2-1.3-2.3-3-1.2-4.3c1-1.1,3.1-0.9,4.6,0c0.5,0.3,0.6,1.3,1.2,1.7c2.3,1.5,4.8,2.2,7.3,0.7c1-0.6,2.2-1.5,1.7-2.8
		c-1.1-3.1-4.1-2.6-6.5-3.1c-4.8-0.8-9.1-2.7-8.5-8.4C35.4,95.8,40,94.4,45.8,94.1z"/>
	<path class="st1" d="M16.7,64.4c7.7,0.1,12.2,5.2,12,13.4c-0.2,7.9-5.3,12.9-13,12.7c-7.4-0.3-12.5-6-12.2-13.6
		C3.9,68.9,8.8,64.3,16.7,64.4z M23,77.5c-0.1-4.6-1.6-8.4-6.6-8.6c-5.7-0.2-7,4.3-7,8.7c0,4.2,1.7,8.2,6.9,8.1
		C21.4,85.6,22.8,81.8,23,77.5z"/>
	<path class="st1" d="M80.1,104.4c0,12.2-3.2,16.9-11.3,16.7c-7.8-0.2-10.8-4.5-10.4-16.6c0.1-3.2-3-9.2,2.4-9.4
		c6.3-0.2,2.2,6.1,3.1,9.4c0.6,2,0.1,4.2,0.2,6.4c0.1,3,1.3,4.9,4.7,5c3.6,0.1,5.2-1.9,5.4-5.2c0.2-3.5-0.1-7.1,0.1-10.7
		c0.1-2-1.5-5.1,2.5-5.4c4.7-0.3,2.8,3.3,3.1,5.5C80.3,101.6,80.1,103,80.1,104.4z"/>
	<path class="st1" d="M82.9,76.8c0-2.6-0.1-5.2,0-7.8c0.1-1.9-0.9-4.4,2.7-4.5c3.6-0.2,3.3,2.2,2.9,4.2c-0.9,5.5,1.8,6.1,6.4,6
		c4-0.1,5.6-1,5.2-5.2c-0.2-2-1.3-5,2.9-5c4.3,0,2.6,3.2,2.7,5.1c0.2,5.2,0.1,10.4,0,15.7c0,2.1,1.1,5.1-3,4.9
		c-3.4-0.2-2.9-2.7-2.6-4.7c0.5-4.5-0.9-6.1-5.8-6.1c-4.7,0-6.3,1.4-5.8,6c0.2,1.8,1.2,4.5-2.4,4.8c-3.9,0.2-3.2-2.5-3.3-4.8
		C82.9,82.5,82.9,79.6,82.9,76.8z"/>
	<path class="st1" d="M132.7,91.3c-8.1-5.7-16.3-9.7-24.3,1.3c-0.2-1.1-0.3-2.1-0.5-3.2c2.7-7.5,5.5-14.9,8.2-22.4
		c0.8-2.3,2.3-2.5,4.4-2.7c2.6-0.2,3.7,0.8,4.6,3.2c2.6,7.3,5.4,14.5,8.1,21.8C132.9,90,132.8,90.6,132.7,91.3z M120.6,70.6
		c-2,3.9-4.3,6.2-2.7,9.3c0.7,1.3,3.6,1.2,4.5,0.1C124.6,77,121.7,74.7,120.6,70.6z"/>
	<path class="st1" d="M57.1,77.6C57,71.9,58.9,67,64.5,65.1c4.4-1.5,9.4-1.7,13.2,2.2c1.1,1.1,2.9,2.4,1.8,4.1
		c-1.2,1.8-3.5,1.8-4.9,0.4c-2.7-2.5-5.3-4.1-8.7-1.6c-3.2,2.3-3,5.7-2.7,9c0.6,6.3,5.4,8.5,10.4,4.5c2.1-1.7,4.4-3.1,5.9-0.8
		c1.6,2.3-1.2,4.3-3,5.5c-4,2.9-8.5,2.8-12.8,0.9C59.5,87.6,57.1,82.8,57.1,77.6z"/>
	<path class="st1" d="M141,77.7c0,3.3,0,6.6,0,9.9c0,2.3-1.4,2.6-3.3,2.6c-1.8,0-2.5-1-2.5-2.7c0-6.9,0-13.7,0-20.6
		c0-1.8,0.8-2.5,2.5-2.5c1.9,0,3.3,0.3,3.2,2.6C141,70.6,141.1,74.1,141,77.7z"/>
</g>
</svg>
