<svg id="Layer_1" data-name="Layer 1" xmlns="http://www.w3.org/2000/svg" viewBox="0 0 963.96 843.71"><defs><style>.cls-1{fill:none;}</style></defs><title>tokenproof</title><path d="M747.15,390.78c-15.62,3.75-25.85.55-34.12-10.9a273.73,273.73,0,0,0-25.39-29.35c-2.95-3.07-9.54-6.87-11.76-5.52-3.78,2.18-6.87,7.81-7.67,12.46-1.24,7-.35,14.42-.28,21.68s-.46,13.37-10.71,13.3-12.36-5.91-12.11-13.88c.29-9,1.37-17.94,2.13-26.92l-3.46-1.81c-2.29,3.05-5.38,5.75-6.87,9.16-9.23,22.55-31.48,39.17-53.69,39.52-24.13.43-47.94-16.81-57.23-41.44-11.66-31,.78-65.64,27.84-80.59,33.29-18.32,74.66,1.21,83.06,31.2,1,3.53,4.35,6.37,8,11.45V239.68c0-8.66,3.14-15.11,12.82-14.61,9,.46,10.19,7.26,10.17,14.74-.14,26.63,0,53.28,0,82.22a53.14,53.14,0,0,0,8.4-5.52c11.45-11.72,23.24-23.19,33.86-35.62,9.16-10.81,20.15-12,34.66-9.16a55,55,0,0,1-5.7,8.49c-12.89,13-25.77,26-39,38.56-6.14,5.81-5.75,10.37-.19,16.36,14.22,15.34,28,31.09,41.83,46.82A63.87,63.87,0,0,1,747.15,390.78ZM545.68,331.92c-.46,23.58,10.53,40.89,27.88,43.84,27.48,4.58,45.79-13.33,44.62-44-.8-21.65-10.12-36.63-25.18-40.31-27.45-6.8-46.64,9.59-47.28,40.5Z" transform="translate(-3.55)"/><path d="M772.49,514.54c-21.38,47.49-45.54,64-79.33,53.21-30-9.55-46.7-36-43.2-68.38,3.69-34.05,23.22-52.94,51.28-56.87,36.29-5.11,61.36,18.31,69.4,54.94,3-4.76,5.72-7.42,6.59-10.57,7.17-26.33,26-40.85,51.24-43.76C852,440.44,872,451,885,472.1c18.73,30,10.4,71.93-19.59,90.18-29.06,17.7-71,9.68-86.48-29.63C776.93,527.57,775.28,522.44,772.49,514.54Zm-62.27,36.64c5.93-2.18,12.34-3.53,17.67-6.69,16.85-9.94,22.49-31.59,15.53-57.05a34,34,0,0,0-48.86-21.75c-18.16,9.16-26.17,33.81-18.48,56.75,5.93,17.68,17.75,27.25,34.14,28.74Zm88.39-41.76a65.71,65.71,0,0,0,0,8.65c1.47,13.92,13.14,28.69,24.68,31.53,15.62,3.84,32.06-1.31,39.38-13.54a53.7,53.7,0,0,0,2.86-52.33c-8.9-19.48-30.24-26.6-48.72-16-14.49,8.43-19.52,22.55-18.2,41.72Z" transform="translate(-3.55)"/><path d="M479.65,460.38c5.49-2.89,8.7-3.9,11-5.91,29.32-25.34,69-5.22,79.87,20.24a151.27,151.27,0,0,0,8,14.33l2.29-1.72c0-9.7-.57-19.48.27-29.12.32-3.82,3.51-10.23,5.86-10.46,5.38-.53,13.88.27,16,3.73,4.46,7,6.71,3.43,11.45,1.31a102.46,102.46,0,0,1,24.29-8.09c8-1.42,13,3.28,13,11.77s-5.39,9.85-12.32,8.93c-25.19-3.27-33.91,13.74-35.08,35.69-1,18.64-.45,37.37-.23,56.07,0,7.21-1.37,11.65-9.93,11.45-7.92-.16-13.53-1.79-13.35-11.27.18-9.86,0-19.73,0-29.6l-3-1.33c-1.86,3.25-4,6.37-5.55,9.78-12.61,28.25-37.5,40.5-67,32.28-4.92-1.37-9.15-4.9-13.73-7.42L480.57,555c0,19-.3,35.65.13,52.27.19,8-1.85,11.79-10.78,11.84s-10.58-4.26-10.53-12c.23-48.81,0-97.65.2-146.53,0-5.42-3-13.32,6.87-13.85C474.2,446.25,483.36,444.65,479.65,460.38Zm76,44c-1.12-4.28-2.52-11.77-5-18.84a34.64,34.64,0,0,0-65.34,2.29,60.17,60.17,0,0,0,.34,40.29c4.3,11.45,11.58,20.12,25,22.21C540.92,555,553.32,534.85,555.61,504.38Z" transform="translate(-3.55)"/><path d="M808,340c-13.21-.87-26.42-1.69-39.63-2.61-6.44-.43-9.32,2.29-8.27,8.8,2.29,13.73,13.92,28.41,25.44,29,22.62,1.26,31.75,3.91,42-17.54,4.37-9.16,10.3-7.3,16.9-4.81,7.78,2.93,5.36,7.83,2.77,13.58-15.66,34.82-67.43,38.71-93.2,12.5-26.36-26.83-24.87-80.93,11.14-102.43a58.68,58.68,0,0,1,58.57-2.29c19.87,9.75,27.75,28.3,29.39,49.5.9,11.45-2.93,15.25-14.21,15.43-10.31.14-20.61,0-30.89,0Zm-43.66-21.47c19.14,0,38.35.18,57.55-.28,1.9,0,5.36-4.19,5.27-6.29-.57-13.46-17.79-26.15-33.2-25.19C776.86,288.12,763.24,302,764.32,318.57Z" transform="translate(-3.55)"/><path d="M323.65,410.44c-48.65-3.38-87.6-25.18-110.12-77.17a211.71,211.71,0,0,1-17.88-81.48c-.12-7.47-.3-13.56,10.18-13.56,14.11,0,16.67,1.56,18,12.66,2.29,17.61,3.23,35.63,7.83,52.66,7.79,28.76,20.61,54.95,49.71,68.68,17.83,8.47,36.63,12.27,56.32,8.84,9.52-1.65,21.89,11.84,18.54,20.61a7.67,7.67,0,0,1-5,3.91C341.25,407.65,331.16,409.18,323.65,410.44Z" transform="translate(-3.55)"/><path d="M195.85,597.83c5.15-44.57,13.88-88,48.4-120.37,29.76-28,66-35.44,105.57-28.28,5.42,1,9,4.08,5.33,10.6-1.62,2.91-1.33,7.1-3.34,9.5-2.54,3.05-7,7.35-9.87,6.87-60.26-11.15-101.1,26.65-111.22,82-2.63,14.43-5.22,28.92-6.71,43.5-1.39,13.74-3,15-17.92,15.18-12.69.16-10.44-8-10.24-15.5C195.88,600.12,195.85,599,195.85,597.83Z" transform="translate(-3.55)"/><path d="M160.07,258.63c-4.58,40.34-12.3,79.54-39.7,111.57S57.53,414.79,15.65,407.28c-5.81-1-14-.91-11.7-11.19,3.14-13.74,6.41-16,17.49-14.81,30.7,3.57,57.79-3.67,79.06-27.71C115.06,337.11,122,316.94,127,296.34a248.31,248.31,0,0,0,6.87-47c.5-12.06,7-10.81,15-11.17,9.52-.44,12.2,3.94,11.29,12.41A75.46,75.46,0,0,0,160.07,258.63Z" transform="translate(-3.55)"/><path d="M160,597.72c0,1.92-.13,3.82,0,5.72.58,7.47.41,13.74-10.16,13.33-8.84-.3-14.93.71-16.28-12.32-3.5-34.09-7.88-68.27-29.14-97.51C84.88,480,49.86,470.47,20.57,475.53c-10.46,1.81-13.32-.48-16.59-16.6-2.07-10,5.1-9.47,11.79-10.46,44.82-6.62,81.57,7.17,109.41,43.13,14.56,18.82,22.89,40.6,27.93,63.72,3,14,5.54,28.07,8.29,42.1Z" transform="translate(-3.55)"/><path d="M883.76,283c3.25-1.52,4.94-1.79,5.84-2.77,12.54-14.11,28.34-15.18,44.91-10.44,19.76,5.65,28.6,21.91,30.71,40.11,2.7,23.3,2,47,2.28,70.6.14,7.33-3,12.16-11.72,11.84s-11.1-4.33-11.26-12.23c-.46-23.53-.8-47.11-2.29-70.58-.89-14.06-10.74-22-25.18-22.71s-27.27,7.49-28.78,20.6c-2.7,23.24-3.64,46.69-5.22,70.06-.48,6.87,1.62,14.86-10.08,15s-13.16-6.87-12.86-15.5c.46-14.19,1.74-28.39,1.69-42.58,0-16.3-1.3-32.61-1.67-48.93-.16-6.87,0-14,9.57-15.2C878.56,269.12,883.71,272.25,883.76,283Z" transform="translate(-3.55)"/><path d="M936.83,449c7,0,13.46.44,19.82-.11,8.06-.69,10.92,5,10.19,10.41-.5,3.8-5.91,7.12-9.45,10.31-.85.75-3,.18-4.47.13-17.17-.55-17.17-.55-17.17,17.56,0,23.63-.16,47.26,0,71,.11,8.54-3,12.52-11.9,12.73-8.18.2-11.64-2.29-11.45-11,.46-26.67.11-53.34.23-80.13,0-7.67-.14-13.87-11.22-11.58-2.29.5-8.59-5.4-8.59-8.36,0-3.61,4.06-8.1,7.51-10.55,2.29-1.6,6.6-.32,9.5-.32,2.84-10.42,4.47-20.45,8.29-29.56,4.81-11.45,28.23-21.77,39.88-18a12.43,12.43,0,0,1,7,8.65c.37,3.05-2.83,6.87-5.08,9.8-.91,1.22-3.36,1.54-5.17,1.81C936,424.62,934.17,427.09,936.83,449Z" transform="translate(-3.55)"/><path d="M470.72,330.11c0-9.55-.34-19.1,0-28.6.34-7.41-2.43-11-9.89-10-6.87.89-11.84-2-12.32-8.56-.45-6.21,3.14-9.94,10.47-10.65,11.67-1.12,13.73-9.84,13.92-20,.13-4.58,1.6-11.45,4.8-13.42,7.38-4.44,13.74.53,13.95,9.57v4.58c0,19.05,0,19.34,19.09,19.46,7.26,0,10.62,2.52,10.6,9.75,0,7.6-4.19,9.3-11,9.32-18.69,0-18.69.3-18.69,18.8,0,14.88-.13,29.76,0,44.64.21,13.87,6.07,20.24,19.78,20.6,6.87,0,11,3.19,9.41,9.16-1,3.78-6,8.86-9.66,9.16-23.72,2.47-39.22-11.31-40.45-35.28-.48-9.5,0-19.07,0-28.6Z" transform="translate(-3.55)"/><rect class="cls-1" x="369.43" width="261.41" height="24.47"/><rect class="cls-1" x="369.43" y="819.24" width="261.41" height="24.47"/></svg>