<?xml version="1.0" encoding="utf-8"?>
<!-- Generator: Adobe Illustrator 28.0.0, SVG Export Plug-In . SVG Version: 6.00 Build 0)  -->
<svg version="1.1" id="Layer_1" xmlns="http://www.w3.org/2000/svg" xmlns:xlink="http://www.w3.org/1999/xlink" x="0px" y="0px"
	 viewBox="0 0 964 843.7" style="enable-background:new 0 0 964 843.7;" xml:space="preserve">
<style type="text/css">
	.st0{fill:#161616;}
	.st1{fill:#E4E4E4;}
</style>
<g>
	<path class="st0" d="M492.3,251.7c125.6,0,251.3,0,376.9,0c33.7,0,50.4,16.7,50.4,50.5c0,56.3,0.1,112.6,0,168.9
		c0,20.8-10.9,35-30.3,43.2c-4,1.7-8.2,8.2-8.5,12.7c-1,17.9,0.6,35.9-0.9,53.8c-0.6,7.4-4.8,18.1-10.4,20.5
		c-8.9,3.9-20.1,3.6-28.1-7c-16.8-22.2-34.8-43.5-51.6-65.8c-6.7-9-14.3-11.7-25.3-11.7c-214.2,0.3-428.5,0.2-642.7,0.3
		c-17.5,0-35-1.5-46.3-16.1c-5.9-7.6-9.8-18.8-10-28.5c-0.9-58.3-0.7-116.6-0.4-174.9c0.2-28.8,18-46,47.2-46
		C239,251.7,365.6,251.7,492.3,251.7z M863.1,502.4c35.1-6.9,40.5-13.5,40.5-45.7c0-48.8,0-97.7,0-146.5c0-32.7-9.1-42-41.4-42
		c-85.1,0-170.2,0-255.3,0c-163.7,0-327.4,0-491.1,0c-21.3,0-33.9,10.4-34,29c-0.3,58.3-0.2,116.6,0,174.9
		c0,14.3,7.4,23.6,21.6,26.3c7.3,1.4,14.8,2.1,22.3,2.1c211.3,0.1,422.5,0.6,633.8-0.6c23.7-0.1,37.5,7.7,50.2,25.9
		c15.2,21.8,32.8,42,49.3,62.9c1.4-0.3,2.8-0.7,4.2-1C863.1,559.2,863.1,530.9,863.1,502.4z"/>
	<path class="st1" d="M863.1,502.4c0,28.5,0,56.8,0,85.1c-1.4,0.3-2.8,0.7-4.2,1c-16.6-20.9-34.2-41-49.3-62.9
		c-12.6-18.2-26.5-26-50.2-25.9c-211.2,1.2-422.5,0.7-633.8,0.6c-7.4,0-15-0.7-22.3-2.1c-14.2-2.7-21.6-12-21.6-26.3
		c-0.1-58.3-0.2-116.6,0-174.9c0.1-18.6,12.7-29,34-29c163.7,0,327.4,0,491.1,0c85.1,0,170.2,0,255.3,0c32.3,0,41.4,9.3,41.4,42
		c0,48.8,0,97.7,0,146.5C903.6,488.9,898.2,495.5,863.1,502.4z M627.3,297.9c-68.1,0-136.2-0.1-204.3,0c-23.4,0-34,10.7-34.1,33.9
		c-0.1,34.9-0.2,69.8,0,104.7c0.1,22.6,10.6,33.5,32.9,33.5c135.7,0.2,271.4,0.2,407.1,0c23.5,0,34-10.7,34.1-33.9
		c0.2-32.9,0-65.8,0-98.7c0-30.5-8.9-39.5-39-39.5C758.5,297.9,692.9,297.9,627.3,297.9z M319,394.9c2.2-1.8,3.5-3.2,5.1-4.3
		c17.5-12.5,23.6-29.9,17.9-51c-4.4-16.4-17.3-26-38.5-27.4c-13.9-0.9-28-0.4-41.9-0.6c-8.1-0.1-13.7,2.6-13.7,11.8
		c0,40.3-0.4,80.6,0.6,120.8c0.1,4.3,8.2,11.7,12.6,11.8c4.4,0,11.7-6.9,12.6-11.8c1.9-10.6,0-21.8,0.9-32.7c0.4-4.9,4-9.5,6.2-14.2
		c4.9,3.3,11.5,5.5,14.3,10.1c8.1,13.1,14.6,27.1,21.7,40.9c4.2,8.2,9.8,12.9,19.1,7.4c8.1-4.8,10.4-11,5.1-19.9
		C333.3,422.6,326.5,408.8,319,394.9z M179.4,416.2c-1.2-0.1-2.4-0.3-3.6-0.4c-8.8-31-17.8-62-26.5-93.1c-2.5-8.8-7.5-12.8-16.6-10
		c-8.5,2.6-12.3,7.7-9.3,17c12.1,38.5,23.5,77.3,36.5,115.5c1.9,5.7,10.8,11.1,17.4,12.7c9,2.1,16-3.2,18.9-12.9
		c11.7-38.6,23.6-77.2,35.7-115.7c3-9.7-1.8-14.2-9.9-16.6c-10.4-3.1-14.3,3-16.8,11.9C196.7,355.2,188,385.7,179.4,416.2z"/>
	<path class="st0" d="M627.3,297.9c65.6,0,131.2,0,196.8,0c30.1,0,39,9.1,39,39.5c0,32.9,0.2,65.8,0,98.7
		C863,459.3,852.5,470,829,470c-135.7,0.2-271.4,0.2-407.1,0c-22.4,0-32.8-11-32.9-33.5c-0.2-34.9-0.2-69.8,0-104.7
		c0.1-23.2,10.7-33.8,34.1-33.9C491.1,297.8,559.2,297.9,627.3,297.9z M549.9,392c13,0,23.4,0.3,33.8-0.1c8.7-0.4,11.2,3.6,11,11.7
		c-0.4,13.9-1.1,28,0.5,41.7c0.5,4.2,8,10.6,12.3,10.6c4.4,0,12.6-6.4,12.7-10.2c0.9-40.8,0.9-81.6,0-122.4
		c-0.1-3.8-8.2-10.2-12.5-10.2c-4.3,0-10.3,5.8-12.5,10.5c-2.2,4.4-0.5,10.7-0.5,16.2c0,34.3,0,34.1-34.3,31.8
		c-7.7-0.5-10.8-3.1-10.5-10.7c0.4-10.9-0.2-21.9,0.2-32.8c0.3-9.2-1.9-15.7-12.9-15.8c-10.9-0.1-13.2,6.2-13.1,15.5
		c0.2,37.3,0.2,74.7,0,112c-0.1,9.7,1.6,17.1,13.5,16.8c10.9-0.2,12.7-7.2,12.5-16.2C549.7,425.1,549.9,409.7,549.9,392z
		 M691.7,306.2c-7.7,6.9-15.5,10.5-17.4,16.1c-13.1,39.1-25.1,78.6-36.8,118.1c-1.1,3.6,1.1,10.5,4.1,12.5c3.9,2.6,11.3,4,15,2
		c3.8-2.1,6.4-8.7,7.2-13.7c2-13,8.9-16.5,21.6-16.1c25.4,0.9,25,0.4,35.8,23c1.9,4,11.2,8.5,14.5,7c4.6-2.1,10.4-10.6,9.3-14.5
		c-11.1-39.2-23.1-78.2-36-116.8C706.9,317.7,699.1,313.5,691.7,306.2z M411.9,385.2c-0.1,0-0.3,0-0.4,0c0,9.9-0.3,19.9,0.1,29.8
		c0.8,21.5,10.7,35.1,28.9,40.7c21.6,6.6,48-0.2,58.4-16.1c3.4-5.2,6.3-12.2,5.7-18c-0.6-5.4-5.1-13-9.8-14.9
		c-7.5-3-14.7,0.6-16,10.4c-1.7,13.4-9.9,19.2-22.9,17.7c-13.6-1.5-17.9-11-17.9-23.3c0-16.9,0.1-33.8,0-50.7
		c-0.1-12.5,2.3-23.4,17.1-25.4c13.5-1.8,21.3,4.1,24.7,17.9c1,4,9.7,9.1,14.2,8.5c4.2-0.6,9.6-7.5,10.7-12.4
		c1.1-5.2-1.3-11.8-4-16.9c-8.2-15.6-31.7-23.5-54.4-19.3c-19.7,3.6-32.2,16.4-34,36.3C411,361.2,411.9,373.2,411.9,385.2z
		 M777.9,393.6c0,15.9,0.3,31.8-0.1,47.7c-0.2,9.7,3.2,15.5,13.5,15.4c10.4-0.1,13.2-6.3,13.1-15.8c-0.3-25.8-0.1-51.7-0.1-77.5
		c0-24.9,0.1-24.3,24.6-28.1c4.6-0.7,8.2-7.5,12.2-11.5c-4.1-3.9-8-11.1-12.3-11.3c-24.9-1.1-49.9-0.4-74.9-0.6
		c-8.6,0-14.5,4.1-12.5,12.3c1.1,4.5,7.7,8,12.3,11.3c1.7,1.2,4.9,0.6,7.3,0.2c14.6-2.5,18,4.5,17,17.6
		C777.1,366.7,777.9,380.2,777.9,393.6z"/>
	<path class="st0" d="M319,394.9c7.4,13.9,14.3,27.6,22.1,40.8c5.3,8.9,3,15.1-5.1,19.9c-9.3,5.5-14.9,0.8-19.1-7.4
		c-7-13.7-13.6-27.8-21.7-40.9c-2.8-4.5-9.4-6.8-14.3-10.1c-2.2,4.7-5.8,9.3-6.2,14.2c-1,10.9,1,22.1-0.9,32.7
		c-0.9,4.8-8.2,11.8-12.6,11.8c-4.4,0-12.5-7.4-12.6-11.8c-1-40.3-0.6-80.6-0.6-120.8c0-9.2,5.5-11.9,13.7-11.8
		c14,0.2,28-0.3,41.9,0.6c21.2,1.4,34.1,11,38.5,27.4c5.7,21-0.5,38.5-17.9,51C322.6,391.8,321.2,393.1,319,394.9z M288.3,376.1
		c20.9,0,28-5.3,28.2-19.9c0.2-15.2-7.3-19.8-27.1-21.3c-18.7-1.4-15,10.6-15,21C274.5,366.5,271.1,379.9,288.3,376.1z"/>
	<path class="st0" d="M179.4,416.2c8.6-30.6,17.3-61.1,25.8-91.7c2.4-8.8,6.4-15,16.8-11.9c8.1,2.4,13,6.9,9.9,16.6
		c-12.1,38.5-23.9,77.1-35.7,115.7c-2.9,9.7-9.9,15-18.9,12.9c-6.6-1.6-15.5-7-17.4-12.7c-13-38.2-24.4-76.9-36.5-115.5
		c-2.9-9.3,0.9-14.4,9.3-17c9.1-2.8,14.1,1.2,16.6,10c8.7,31.1,17.6,62,26.5,93.1C177,416,178.2,416.1,179.4,416.2z"/>
	<path class="st1" d="M549.9,392c0,17.7-0.2,33.1,0.1,48.4c0.2,9.1-1.6,16-12.5,16.2c-11.8,0.2-13.5-7.2-13.5-16.8
		c0.2-37.3,0.2-74.7,0-112c-0.1-9.3,2.2-15.6,13.1-15.5c10.9,0.1,13.2,6.5,12.9,15.8c-0.3,10.9,0.2,21.9-0.2,32.8
		c-0.2,7.6,2.9,10.2,10.5,10.7c34.3,2.3,34.2,2.5,34.3-31.8c0-5.5-1.6-11.8,0.5-16.2c2.3-4.7,8.2-10.5,12.5-10.5
		c4.4,0,12.5,6.4,12.5,10.2c0.9,40.8,0.9,81.6,0,122.4c-0.1,3.8-8.3,10.2-12.7,10.2c-4.3,0-11.8-6.4-12.3-10.6
		c-1.6-13.8-1-27.8-0.5-41.7c0.2-8.1-2.3-12-11-11.7C573.4,392.3,563,392,549.9,392z"/>
	<path class="st1" d="M691.7,306.2c7.4,7.3,15.2,11.5,17.2,17.6c12.9,38.6,24.9,77.6,36,116.8c1.1,4-4.7,12.4-9.3,14.5
		c-3.3,1.5-12.6-3-14.5-7c-10.8-22.6-10.3-22.1-35.8-23c-12.7-0.5-19.6,3.1-21.6,16.1c-0.8,5-3.4,11.6-7.2,13.7c-3.7,2-11,0.6-15-2
		c-3-2-5.1-8.8-4.1-12.5c11.7-39.6,23.7-79,36.8-118.1C676.2,316.7,684,313.1,691.7,306.2z M693.3,352.6c-1.4-0.2-2.7-0.4-4.1-0.6
		c-4.8,17-9.5,33.9-14.5,51.6c11.8,0,21.3,0,32.9,0C702.6,385.4,697.9,369,693.3,352.6z"/>
	<path class="st1" d="M411.9,385.2c0-11.9-0.9-23.9,0.2-35.8c1.8-19.9,14.3-32.6,34-36.3c22.8-4.2,46.2,3.7,54.4,19.3
		c2.7,5.1,5.1,11.8,4,16.9c-1.1,4.9-6.4,11.9-10.7,12.4c-4.5,0.6-13.2-4.4-14.2-8.5c-3.4-13.8-11.2-19.7-24.7-17.9
		c-14.8,2-17.2,12.9-17.1,25.4c0.2,16.9,0.1,33.8,0,50.7c0,12.3,4.2,21.8,17.9,23.3c13,1.5,21.2-4.3,22.9-17.7
		c1.3-9.8,8.4-13.4,16-10.4c4.7,1.9,9.2,9.4,9.8,14.9c0.6,5.8-2.3,12.8-5.7,18c-10.4,15.9-36.8,22.7-58.4,16.1
		c-18.2-5.6-28-19.2-28.9-40.7c-0.4-9.9-0.1-19.9-0.1-29.8C411.6,385.2,411.7,385.2,411.9,385.2z"/>
	<path class="st1" d="M777.9,393.6c0-13.4-0.8-26.9,0.2-40.2c1-13.1-2.5-20.1-17-17.6c-2.4,0.4-5.7,1-7.3-0.2
		c-4.6-3.2-11.2-6.7-12.3-11.3c-2-8.2,3.9-12.4,12.5-12.3c25,0.1,50-0.5,74.9,0.6c4.3,0.2,8.2,7.3,12.3,11.3
		c-4.1,4-7.7,10.8-12.2,11.5c-24.5,3.7-24.6,3.2-24.6,28.1c0,25.8-0.2,51.7,0.1,77.5c0.1,9.5-2.8,15.7-13.1,15.8
		c-10.2,0.1-13.7-5.7-13.5-15.4C778.1,425.4,777.9,409.5,777.9,393.6z"/>
	<path class="st1" d="M288.3,376.1c-17.2,3.8-13.9-9.6-13.9-20.2c0-10.4-3.7-22.4,15-21c19.8,1.5,27.3,6.1,27.1,21.3
		C316.3,370.8,309.2,376.1,288.3,376.1z"/>
	<path class="st0" d="M693.3,352.6c4.6,16.4,9.2,32.9,14.4,51.1c-11.6,0-21.2,0-32.9,0c5-17.7,9.7-34.7,14.5-51.6
		C690.6,352.2,692,352.4,693.3,352.6z"/>
</g>
</svg>
