<?xml version="1.0" encoding="utf-8"?>
<!-- Generator: Adobe Illustrator 23.0.0, SVG Export Plug-In . SVG Version: 6.00 Build 0)  -->
<svg version="1.1" id="Layer_1" xmlns="http://www.w3.org/2000/svg" xmlns:xlink="http://www.w3.org/1999/xlink" x="0px" y="0px"
	 viewBox="0 0 139 39" style="enable-background:new 0 0 139 39;" xml:space="preserve">
<g>
	<path d="M32.2,39c-1-0.6-1.2-1.5-1.2-2.6c0.1-2.8,0-5.7,0-8.6c0-0.3,0-0.7-0.1-1c-0.1-0.2-0.4-0.5-0.5-0.4c-0.2,0-0.5,0.3-0.6,0.5
		c-0.1,0.3-0.1,0.7-0.1,1.1c0,2.5,0,5.1,0,7.6c0,1.4-0.5,1.8-1.9,1.8c-1.8,0-3.5,0-5.3,0c-1.4,0-1.8-0.5-1.8-1.8c0-2.9,0-5.9,0-8.8
		c0-1.3,0.4-1.7,1.9-1.7c5.2,0,10.3,0,15.5,0c1.5,0,1.9,0.4,1.9,1.8c0,3.3,0,6.5,0,9.8c0,1-0.3,1.8-1.2,2.3C36.6,39,34.4,39,32.2,39
		z"/>
	<path d="M138.5,30.8c-0.7,1-1.7,1.1-2.9,1.1c-2.8-0.1-5.6,0-8.5,0c-1.5,0-1.9-0.4-1.9-1.8c0-1.9,0-3.8,0-5.7c0-1.7-0.5-2.2-2.3-2.2
		c-0.8,0-1.5,0-2.3,0c-1,0-1.6-0.5-1.6-1.5c0-3.1,0-6.2,0-9.3c0-1,0.6-1.5,1.6-1.5c1.9,0,3.8,0,5.8,0c1.2,0,1.6,0.7,1.6,1.7
		c0,3.1,0,6.3,0,9.4c0,1.8,0.6,2.3,2.5,2.4c1.8,0,3.5,0.1,5.3,0c1.1,0,2,0.2,2.6,1.1C138.5,26.6,138.5,28.7,138.5,30.8z"/>
	<path d="M107.8,9.9c2.5,0,5,0,7.6,0c1.6,0,2,0.4,2,1.8c0,3.3,0,6.7,0,10c0,1.4-0.4,1.9-1.8,1.9c-1.8,0-3.5,0-5.3,0
		c-1.4,0-1.9-0.5-1.9-1.9c0-3,0-6,0-9c0-0.4,0-0.7-0.1-1.1c-0.1-0.2-0.3-0.4-0.5-0.4s-0.5,0.2-0.5,0.4c-0.1,0.4-0.1,0.8-0.1,1.2
		c0,2.5,0,5,0,7.5c0,1.5-0.4,1.9-1.9,1.9c-1.8,0-3.5,0-5.3,0c-1.3,0-1.8-0.5-1.8-1.7c0-3,0-5.9,0-8.9c0-1.2,0.4-1.7,1.8-1.7
		C102.6,9.9,105.2,9.9,107.8,9.9z"/>
	<path d="M34.6,15.6c0-1.6,0-3.3,0-4.9c0-1.3-0.7-1.9-2-1.9c-2,0-4.1,0-6.1,0c-1.5,0-2-0.4-2-1.7c0-1.7,0-3.4,0-5.1
		c0-1.1,0.6-1.7,1.9-1.7c3.2,0,6.3,0,9.5,0c1.3,0,1.7,0.4,1.7,1.7c0,2,0,3.9,0,5.9c0,1.5,0.6,2,2.2,2c0.8,0,1.6,0,2.4,0
		c1,0,1.6,0.5,1.5,1.5c0,3.1,0,6.1,0,9.2c0,1-0.6,1.6-1.6,1.6c-1.9,0-3.8,0-5.6,0c-1.1,0-1.7-0.5-1.7-1.7
		C34.6,18.9,34.6,17.3,34.6,15.6L34.6,15.6z"/>
	<path d="M66.1,15.6c0-1.6,0-3.2,0-4.8c0-1.4-0.7-2.1-2.2-2.1c-2,0-4,0-6,0c-1.5,0-2-0.4-2-1.7c0-1.7,0-3.4,0-5.1
		c0-1.1,0.6-1.7,1.8-1.7c3.2,0,6.3,0,9.5,0c1.3,0,1.7,0.4,1.7,1.7c0,2,0,4,0,6c0,1.4,0.6,1.9,2,1.9c0.8,0,1.7,0,2.6,0
		c1,0,1.6,0.5,1.6,1.5c0,3.1,0,6.1,0,9.2c0,1.1-0.6,1.6-1.8,1.6c-1.8,0-3.7,0-5.5,0c-1.1,0-1.7-0.5-1.7-1.6
		C66.1,18.9,66.1,17.3,66.1,15.6L66.1,15.6z"/>
	<path d="M86.4,22.2c-2.5,0-5,0-7.6,0c-1.6,0-2-0.4-2-1.9c0-2.9,0-5.8,0-8.7c0-1.3,0.4-1.7,1.8-1.8c1.8,0,3.6,0,5.4,0
		c1.3,0,1.8,0.5,1.8,1.7c0,2.5,0,5.1,0,7.6c0,0.3-0.1,0.7,0,1s0.4,0.5,0.6,0.7c0.2-0.3,0.6-0.5,0.6-0.7c0.1-1.2,0-2.3,0-3.5
		c0-1.7,0-3.4,0-5.1c0-1.1,0.6-1.6,1.7-1.6c1.9,0,3.8,0,5.8,0c1,0,1.5,0.5,1.5,1.4c0,3.1,0,6.3,0,9.4c0,1.2-0.8,1.5-1.9,1.5
		C91.6,22.2,89,22.2,86.4,22.2z"/>
	<path d="M28.4,20.2c-0.6-0.1-1.2-0.3-1.8-0.3c-2.7-0.1-2.7,0-2.7-2.6c0-1.8,0-3.6,0-5.4c0-1.5,0.4-1.9,2-1.9c1.8,0,3.6,0,5.4,0
		c1.1,0,1.7,0.5,1.6,1.5c0,3.1,0,6.1,0,9.2c0,1.1-0.5,1.6-1.6,1.6c-5.3,0-10.7,0-16,0c-1.1,0-1.6-0.5-1.6-1.6c0-3,0-6,0-9
		c0-1.2,0.4-1.6,1.8-1.6c1.8,0,3.6,0,5.4,0c1.3,0,1.8,0.5,1.8,1.7c0,2.4,0,4.9,0,7.4c0,1.6,0.5,2,2.2,2.1c0.8,0,1.6,0,2.4,0
		c0.4,0,0.8-0.2,1.1-0.3C28.4,20.6,28.4,20.4,28.4,20.2z"/>
	<path d="M61,31.4c0,1.4,0,2.9,0,4.3c0,1.3-0.4,1.7-1.7,1.7c-5.3,0-10.5,0-15.8,0c-1.3,0-1.8-0.5-1.8-1.7c0-3,0-5.9,0-8.9
		c0-1.2,0.5-1.6,1.8-1.7c1.8,0,3.6,0,5.4,0c1.4,0,1.8,0.5,1.8,1.8c0,2.4,0,4.8,0,7.2c0,1.6,0.5,2.1,2.2,2.1c0.9,0,1.9,0,2.8,0
		c0.3,0,0.5-0.3,0.7-0.4c-0.2-0.2-0.4-0.6-0.6-0.7C55,35,54.3,35,53.5,35c-1.1,0-1.6-0.5-1.6-1.5c0-2.3,0-4.6,0-6.9
		c0-1,0.6-1.5,1.7-1.6c1.9,0,3.8,0,5.8,0c1,0,1.5,0.5,1.5,1.5C61,28.2,61,29.8,61,31.4z"/>
	<path d="M72.5,25.1c2.5,0,5,0,7.6,0c1.6,0,1.9,0.4,2,1.9c0,0.6,0,1.2,0,1.8c0,1.6-0.3,1.9-2.1,1.9c-2,0-4,0-6,0
		c-1.6,0-2.1,0.5-2.2,2c0,0.8,0,1.7,0,2.5c0,0.3,0.4,0.5,0.6,0.8c0.2-0.3,0.6-0.5,0.6-0.9c0.1-0.6,0-1.3,0.1-1.9
		c0.1-0.9,0.5-1.4,1.5-1.4c2,0,3.9,0,5.9,0c1.1,0,1.6,0.5,1.5,1.5c0,0.8,0,1.5,0,2.3c0,1.3-0.4,1.7-1.9,1.7c-2.9,0-5.8,0-8.7,0
		c-2.3,0-4.5,0-6.8,0c-1.5,0-1.9-0.4-1.9-1.8c0-2.9,0-5.8,0-8.7c0-1.4,0.4-1.8,1.9-1.8C67.3,25.1,69.9,25.1,72.5,25.1z M71.5,27.9
		c0.3,0.6,0.6,1,0.9,1.4c0.2-0.5,0.6-1,0.6-1.5s-0.4-1-0.6-1.5C72.1,26.9,71.8,27.4,71.5,27.9z"/>
	<path d="M114.2,37.4c-2.6,0-5.1,0-7.7,0c-1.6,0-1.9-0.4-1.9-1.9c0-0.4,0-0.7,0-1.1c-0.1-1.1,0.5-1.6,1.7-1.6c1.8,0,3.7,0,5.5,0
		c1.3,0,1.8,0.5,1.8,1.7c0,0.3-0.1,0.7,0.1,1c0.1,0.2,0.3,0.5,0.5,0.6c0.1,0,0.5-0.3,0.5-0.4c0-1.1,0.1-2.2-0.2-3.2
		c-0.1-0.4-1.2-0.8-1.8-0.8c-2.1-0.1-4.2,0-6.3,0c-1.5,0-1.8-0.3-1.8-1.7c0-1.1,0-2.3,0-3.4c0-1,0.5-1.4,1.5-1.4
		c5.4,0,10.8,0,16.1,0c1,0,1.5,0.5,1.6,1.5c0.2,2.4-0.2,2.8-2.8,2.8c-1.4,0-2.8,0-4.2,0c-1.5,0-1.9-0.4-1.9-1.8c0-0.3,0-0.6-0.2-0.9
		c-0.1-0.2-0.4-0.3-0.6-0.3c-0.1,0-0.4,0.3-0.4,0.4c0,1-0.2,2,0.2,2.8c0.2,0.5,1.2,0.9,1.9,0.9c2.1,0.1,4.2,0,6.3,0
		c1.5,0,1.9,0.4,1.9,1.8c0,1,0,2.1,0,3.1c0,1.4-0.5,1.8-1.9,1.8C119.3,37.5,116.7,37.4,114.2,37.4z"/>
	<path d="M55.2,9.9c2.5,0,5,0,7.4,0c1.6,0,2,0.3,2,1.8c0,1.6,0,3.1,0,4.7c0,1.1-0.6,1.6-1.6,1.6c-1.9,0.1-3.8,0.1-5.8,0
		c-1.1,0-1.7-0.6-1.7-1.7c0-1.3,0-2.6,0-4c0-0.4-0.4-0.8-0.6-1.1c-0.2,0.4-0.6,0.8-0.6,1.1c-0.1,2.6,0,5.2,0,7.8c0,1.7-0.4,2-2.2,2
		c-1.7,0-3.3,0-5,0c-1.3,0-1.8-0.5-1.8-1.7c0-3,0-5.9,0-8.9c0-1.3,0.5-1.7,1.9-1.7C49.9,9.9,52.5,9.9,55.2,9.9z"/>
	<path d="M9.7,25.1c2.5,0,5,0,7.6,0c1.6,0,2,0.3,2,1.8c0,1.6,0,3.1,0,4.7c0,1.1-0.6,1.6-1.6,1.6c-1.9,0.1-3.8,0.1-5.8,0
		c-1.1,0-1.7-0.6-1.7-1.7c0-1.4,0.1-2.7,0-4.1c0-0.4-0.4-0.7-0.6-1c-0.2,0.3-0.6,0.7-0.6,1c-0.1,2.6,0,5.3,0,8c0,1.7-0.4,2-2.2,2
		c-1.7,0-3.3,0-5,0C0.5,37.4,0,37,0,35.7c0-3,0-5.9,0-8.9c0-1.3,0.4-1.7,1.9-1.7C4.5,25.1,7.1,25.1,9.7,25.1z"/>
	<path d="M93.5,25.1c2.6,0,5.1,0,7.7,0c1.5,0,1.9,0.4,1.9,1.8c0,1.6,0,3.1,0,4.7c0,1.1-0.5,1.6-1.6,1.7c-1.9,0.1-3.8,0.1-5.8,0
		c-1.1,0-1.7-0.6-1.7-1.7s0.1-2.3,0-3.4c-0.1-0.6-0.4-1.2-0.6-1.8c-1.1,0.3-0.6,1.2-0.7,1.8c-0.1,2.4,0,4.7,0,7.1c0,1.7-0.4,2-2.2,2
		c-1.6,0-3.2,0-4.9,0c-1.5,0-1.9-0.4-1.9-1.8c0-2.9,0-5.9,0-8.8c0-1.3,0.4-1.7,1.9-1.7C88.3,25.1,90.9,25.1,93.5,25.1z"/>
</g>
<path d="M66.1,15.6c0-1.6,0-3.2,0-4.8c0-1.4-0.7-2.1-2.2-2.1c-2,0-4,0-6,0c-1.5,0-2-0.4-2-1.7c0-1.7,0-3.4,0-5.1
	c0-1.1,0.6-1.7,1.8-1.7c3.2,0,6.3,0,9.5,0c1.3,0,1.7,0.4,1.7,1.7c0,2,0,4,0,6c0,1.4,0.6,1.9,2,1.9c0.8,0,1.7,0,2.6,0
	c1,0,1.6,0.5,1.6,1.5c0,3.1,0,6.1,0,9.2c0,1.1-0.6,1.6-1.8,1.6c-1.8,0-3.7,0-5.5,0c-1.1,0-1.7-0.5-1.7-1.6
	C66.1,18.9,66.1,17.3,66.1,15.6L66.1,15.6z"/>
</svg>
